RedHatDisplayVF-Regular.ufo
<glyph name="exclam" format="2">
  <advance width="198"/>
  <unicode hex="0021"/>
  <outline>
    <contour>
      <point x="69" y="194" type="line"/>
      <point x="128" y="194" type="line"/>
      <point x="137" y="705" type="line"/>
      <point x="60" y="705" type="line"/>
    </contour>
    <contour>
      <point x="99" y="-6" type="curve" smooth="yes"/>
      <point x="127" y="-6"/>
      <point x="150" y="17"/>
      <point x="150" y="45" type="curve" smooth="yes"/>
      <point x="150" y="73"/>
      <point x="127" y="96"/>
      <point x="99" y="96" type="curve" smooth="yes"/>
      <point x="71" y="96"/>
      <point x="48" y="73"/>
      <point x="48" y="45" type="curve" smooth="yes"/>
      <point x="48" y="17"/>
      <point x="71" y="-6"/>
    </contour>
  </outline>
</glyph>
<glyph name="numbersign" format="2">
  <advance width="692"/>
  <unicode hex="0023"/>
  <outline>
    <contour>
      <point x="79" y="0" type="line"/>
      <point x="147" y="0" type="line"/>
      <point x="210" y="219" type="line"/>
      <point x="408" y="219" type="line"/>
      <point x="345" y="0" type="line"/>
      <point x="413" y="0" type="line"/>
      <point x="476" y="219" type="line"/>
      <point x="612" y="219" type="line"/>
      <point x="612" y="277" type="line"/>
      <point x="492" y="277" type="line"/>
      <point x="534" y="423" type="line"/>
      <point x="662" y="423" type="line"/>
      <point x="662" y="481" type="line"/>
      <point x="550" y="481" type="line"/>
      <point x="613" y="700" type="line"/>
      <point x="545" y="700" type="line"/>
      <point x="482" y="481" type="line"/>
      <point x="284" y="481" type="line"/>
      <point x="347" y="700" type="line"/>
      <point x="279" y="700" type="line"/>
      <point x="216" y="481" type="line"/>
      <point x="80" y="481" type="line"/>
      <point x="80" y="423" type="line"/>
      <point x="200" y="423" type="line"/>
      <point x="158" y="277" type="line"/>
      <point x="30" y="277" type="line"/>
      <point x="30" y="219" type="line"/>
      <point x="142" y="219" type="line"/>
    </contour>
    <contour>
      <point x="226" y="277" type="line"/>
      <point x="268" y="423" type="line"/>
      <point x="466" y="423" type="line"/>
      <point x="424" y="277" type="line"/>
    </contour>
  </outline>
</glyph>
<glyph name="parenleft" format="2">
  <advance width="389"/>
  <unicode hex="0028"/>
  <outline>
    <contour>
      <point x="313" y="-213" type="curve"/>
      <point x="352" y="-162" type="line"/>
      <point x="213" y="-82"/>
      <point x="135" y="67"/>
      <point x="135" y="249" type="curve" smooth="yes"/>
      <point x="135" y="430"/>
      <point x="213" y="579"/>
      <point x="352" y="660" type="curve"/>
      <point x="313" y="710" type="line"/>
      <point x="152" y="615"/>
      <point x="64" y="453"/>
      <point x="64" y="249" type="curve" smooth="yes"/>
      <point x="64" y="45"/>
      <point x="152" y="-117"/>
    </contour>
  </outline>
</glyph>
<glyph name="period" format="2">
  <advance width="250"/>
  <unicode hex="002E"/>
  <outline>
    <contour>
      <point x="125" y="-6" type="curve" smooth="yes"/>
      <point x="153" y="-6"/>
      <point x="176" y="17"/>
      <point x="176" y="45" type="curve" smooth="yes"/>
      <point x="176" y="73"/>
      <point x="153" y="96"/>
      <point x="125" y="96" type="curve" smooth="yes"/>
      <point x="97" y="96"/>
      <point x="74" y="73"/>
      <point x="74" y="45" type="curve" smooth="yes"/>
      <point x="74" y="17"/>
      <point x="97" y="-6"/>
    </contour>
  </outline>
</glyph>
<glyph name="one" format="2">
  <advance width="289"/>
  <unicode hex="0031"/>
  <outline>
    <contour>
      <point x="146" y="0" type="line"/>
      <point x="219" y="0" type="line"/>
      <point x="219" y="700" type="line"/>
      <point x="172" y="700" type="line"/>
      <point x="28" y="638" type="line"/>
      <point x="28" y="571" type="line"/>
      <point x="146" y="623" type="line"/>
    </contour>
  </outline>
</glyph>
<glyph name="nine" format="2">
  <advance width="612"/>
  <unicode hex="0039"/>
  <outline>
    <contour>
      <point x="281" y="711" type="curve" smooth="yes"/>
      <point x="145" y="711"/>
      <point x="44" y="613"/>
      <point x="44" y="480" type="curve" smooth="yes"/>
      <point x="44" y="354"/>
      <point x="142" y="262"/>
      <point x="278" y="262" type="curve" smooth="yes"/>
      <point x="355" y="262"/>
      <point x="431" y="301"/>
      <point x="483" y="368" type="curve"/>
      <point x="480" y="173"/>
      <point x="391" y="55"/>
      <point x="247" y="55" type="curve" smooth="yes"/>
      <point x="201" y="55"/>
      <point x="154" y="69"/>
      <point x="113" y="93" type="curve"/>
      <point x="77" y="37" type="line"/>
      <point x="122" y="7"/>
      <point x="183" y="-10"/>
      <point x="241" y="-10" type="curve" smooth="yes"/>
      <point x="430" y="-10"/>
      <point x="555" y="143"/>
      <point x="555" y="375" type="curve" smooth="yes"/>
      <point x="555" y="572"/>
      <point x="442" y="711"/>
    </contour>
    <contour>
      <point x="288" y="321" type="curve" smooth="yes"/>
      <point x="187" y="321"/>
      <point x="116" y="388"/>
      <point x="116" y="482" type="curve" smooth="yes"/>
      <point x="116" y="577"/>
      <point x="187" y="648"/>
      <point x="282" y="648" type="curve" smooth="yes"/>
      <point x="389" y="648"/>
      <point x="466" y="559"/>
      <point x="481" y="424" type="curve"/>
      <point x="432" y="360"/>
      <point x="361" y="321"/>
    </contour>
  </outline>
</glyph>
<glyph name="less" format="2">
  <advance width="600"/>
  <unicode hex="003C"/>
  <outline>
    <contour>
      <point x="423" y="103" type="line"/>
      <point x="461" y="151" type="line"/>
      <point x="200" y="350" type="line"/>
      <point x="461" y="547" type="line"/>
      <point x="424" y="594" type="line"/>
      <point x="107" y="349" type="line"/>
    </contour>
  </outline>
</glyph>
<glyph name="question" format="2">
  <advance width="506"/>
  <unicode hex="003F"/>
  <outline>
    <contour>
      <point x="188" y="199" type="curve"/>
      <point x="252" y="199" type="line"/>
      <point x="247" y="266"/>
      <point x="266" y="308"/>
      <point x="315" y="342" type="curve" smooth="yes"/>
      <point x="349" y="366" type="line" smooth="yes"/>
      <point x="438" y="427"/>
      <point x="466" y="469"/>
      <point x="466" y="538" type="curve" smooth="yes"/>
      <point x="466" y="637"/>
      <point x="374" y="711"/>
      <point x="252" y="711" type="curve"/>
      <point x="160" y="711"/>
      <point x="78" y="669"/>
      <point x="20" y="593" type="curve"/>
      <point x="78" y="555" type="line"/>
      <point x="123" y="614"/>
      <point x="182" y="645"/>
      <point x="248" y="645" type="curve" smooth="yes"/>
      <point x="329" y="645"/>
      <point x="393" y="598"/>
      <point x="393" y="537" type="curve" smooth="yes"/>
      <point x="393" y="492"/>
      <point x="372" y="461"/>
      <point x="314" y="419" type="curve" smooth="yes"/>
      <point x="270" y="388" type="line" smooth="yes"/>
      <point x="205" y="341"/>
      <point x="183" y="290"/>
    </contour>
    <contour>
      <point x="220" y="-6" type="curve" smooth="yes"/>
      <point x="248" y="-6"/>
      <point x="271" y="17"/>
      <point x="271" y="45" type="curve" smooth="yes"/>
      <point x="271" y="73"/>
      <point x="248" y="96"/>
      <point x="220" y="96" type="curve" smooth="yes"/>
      <point x="192" y="96"/>
      <point x="169" y="73"/>
      <point x="169" y="45" type="curve" smooth="yes"/>
      <point x="169" y="17"/>
      <point x="192" y="-6"/>
    </contour>
  </outline>
</glyph>
<glyph name="at" format="2">
  <advance width="776"/>
  <unicode hex="0040"/>
  <outline>
    <contour>
      <point x="403" y="-144" type="curve" smooth="yes"/>
      <point x="471" y="-144"/>
      <point x="537" y="-128"/>
      <point x="594" y="-99" type="curve"/>
      <point x="576" y="-58" type="line"/>
      <point x="526" y="-85"/>
      <point x="467" y="-99"/>
      <point x="406" y="-99" type="curve" smooth="yes"/>
      <point x="225" y="-99"/>
      <point x="93" y="31"/>
      <point x="93" y="209" type="curve" smooth="yes"/>
      <point x="93" y="391"/>
      <point x="226" y="532"/>
      <point x="398" y="532" type="curve"/>
      <point x="561" y="532"/>
      <point x="685" y="419"/>
      <point x="685" y="267" type="curve" smooth="yes"/>
      <point x="685" y="172"/>
      <point x="632" y="99"/>
      <point x="562" y="99" type="curve" smooth="yes"/>
      <point x="517" y="99"/>
      <point x="496" y="126"/>
      <point x="506" y="174" type="curve" smooth="yes"/>
      <point x="545" y="366" type="line"/>
      <point x="489" y="366" type="line"/>
      <point x="484" y="340" type="line"/>
      <point x="459" y="365"/>
      <point x="422" y="379"/>
      <point x="383" y="379" type="curve" smooth="yes"/>
      <point x="289" y="379"/>
      <point x="214" y="300"/>
      <point x="214" y="202" type="curve" smooth="yes"/>
      <point x="214" y="116"/>
      <point x="275" y="51"/>
      <point x="357" y="51" type="curve" smooth="yes"/>
      <point x="393" y="51"/>
      <point x="430" y="67"/>
      <point x="463" y="96" type="curve"/>
      <point x="481" y="70"/>
      <point x="513" y="55"/>
      <point x="556" y="55" type="curve" smooth="yes"/>
      <point x="657" y="55"/>
      <point x="733" y="146"/>
      <point x="733" y="269" type="curve" smooth="yes"/>
      <point x="733" y="443"/>
      <point x="588" y="576"/>
      <point x="400" y="576" type="curve"/>
      <point x="197" y="576"/>
      <point x="44" y="417"/>
      <point x="44" y="207" type="curve" smooth="yes"/>
      <point x="44" y="6"/>
      <point x="198" y="-144"/>
    </contour>
    <contour>
      <point x="369" y="98" type="curve" smooth="yes"/>
      <point x="310" y="98"/>
      <point x="269" y="142"/>
      <point x="269" y="206" type="curve" smooth="yes"/>
      <point x="269" y="274"/>
      <point x="320" y="331"/>
      <point x="382" y="331" type="curve" smooth="yes"/>
      <point x="420" y="331"/>
      <point x="454" y="314"/>
      <point x="473" y="285" type="curve"/>
      <point x="452" y="179" type="line" smooth="yes"/>
      <point x="448" y="162"/>
      <point x="448" y="147"/>
      <point x="450" y="133" type="curve"/>
      <point x="427" y="110"/>
      <point x="399" y="98"/>
    </contour>
  </outline>
</glyph>
<glyph name="A" format="2">
  <advance width="679"/>
  <unicode hex="0041"/>
  <anchor x="340" y="700" name="top"/>
  <anchor x="675" y="0" name="bottom"/>
  <outline>
    <contour>
      <point x="4" y="0" type="line"/>
      <point x="84" y="0" type="line"/>
      <point x="173" y="220" type="line"/>
      <point x="503" y="220" type="line"/>
      <point x="591" y="0" type="line"/>
      <point x="675" y="0" type="line"/>
      <point x="387" y="700" type="line"/>
      <point x="294" y="700" type="line"/>
    </contour>
    <contour>
      <point x="200" y="286" type="line"/>
      <point x="338" y="629" type="line"/>
      <point x="476" y="286" type="line"/>
    </contour>
  </outline>
</glyph>
<glyph name="B" format="2">
  <advance width="657"/>
  <unicode hex="0042"/>
  <outline>
    <contour>
      <point x="77" y="0" type="line"/>
      <point x="373" y="0" type="line" smooth="yes"/>
      <point x="517" y="0"/>
      <point x="611" y="77"/>
      <point x="611" y="197" type="curve" smooth="yes"/>
      <point x="611" y="278"/>
      <point x="559" y="339"/>
      <point x="475" y="365" type="curve"/>
      <point x="542" y="393"/>
      <point x="582" y="448"/>
      <point x="582" y="520" type="curve" smooth="yes"/>
      <point x="582" y="630"/>
      <point x="496" y="700"/>
      <point x="361" y="700" type="curve" smooth="yes"/>
      <point x="77" y="700" type="line"/>
    </contour>
    <contour>
      <point x="154" y="395" type="line"/>
      <point x="154" y="633" type="line"/>
      <point x="357" y="633" type="line" smooth="yes"/>
      <point x="448" y="633"/>
      <point x="506" y="587"/>
      <point x="506" y="514" type="curve" smooth="yes"/>
      <point x="506" y="441"/>
      <point x="448" y="395"/>
      <point x="357" y="395" type="curve" smooth="yes"/>
    </contour>
    <contour>
      <point x="154" y="67" type="line"/>
      <point x="154" y="331" type="line"/>
      <point x="367" y="331" type="line" smooth="yes"/>
      <point x="468" y="331"/>
      <point x="533" y="279"/>
      <point x="533" y="199" type="curve" smooth="yes"/>
      <point x="533" y="119"/>
      <point x="468" y="67"/>
      <point x="367" y="67" type="curve" smooth="yes"/>
    </contour>
  </outline>
</glyph>
<glyph name="C" format="2">
  <advance width="722"/>
  <unicode hex="0043"/>
  <anchor x="403" y="700" name="top"/>
  <anchor x="407" y="0" name="bottom"/>
  <outline>
    <contour>
      <point x="407" y="-11" type="curve" smooth="yes"/>
      <point x="513" y="-11"/>
      <point x="612" y="31"/>
      <point x="682" y="104" type="curve"/>
      <point x="632" y="156" type="line"/>
      <point x="579" y="96"/>
      <point x="496" y="60"/>
      <point x="409" y="60" type="curve" smooth="yes"/>
      <point x="246" y="60"/>
      <point x="122" y="186"/>
      <point x="122" y="350" type="curve" smooth="yes"/>
      <point x="122" y="514"/>
      <point x="245" y="640"/>
      <point x="407" y="640" type="curve" smooth="yes"/>
      <point x="493" y="640"/>
      <point x="578" y="604"/>
      <point x="633" y="542" type="curve"/>
      <point x="684" y="596" type="line"/>
      <point x="616" y="669"/>
      <point x="516" y="711"/>
      <point x="407" y="711" type="curve" smooth="yes"/>
      <point x="203" y="711"/>
      <point x="44" y="552"/>
      <point x="44" y="350" type="curve" smooth="yes"/>
      <point x="44" y="148"/>
      <point x="203" y="-11"/>
    </contour>
  </outline>
</glyph>
<glyph name="D" format="2">
  <advance width="720"/>
  <unicode hex="0044"/>
  <anchor x="360" y="700" name="top"/>
  <outline>
    <contour>
      <point x="154" y="70" type="line"/>
      <point x="154" y="630" type="line"/>
      <point x="312" y="630" type="line" smooth="yes"/>
      <point x="474" y="630"/>
      <point x="598" y="509"/>
      <point x="598" y="350" type="curve" smooth="yes"/>
      <point x="598" y="191"/>
      <point x="474" y="70"/>
      <point x="312" y="70" type="curve" smooth="yes"/>
    </contour>
    <contour>
      <point x="77" y="0" type="line"/>
      <point x="308" y="0" type="line" smooth="yes"/>
      <point x="522" y="0"/>
      <point x="676" y="147"/>
      <point x="676" y="350" type="curve" smooth="yes"/>
      <point x="676" y="553"/>
      <point x="521" y="700"/>
      <point x="308" y="700" type="curve" smooth="yes"/>
      <point x="77" y="700" type="line"/>
    </contour>
  </outline>
</glyph>
<glyph name="E" format="2">
  <advance width="616"/>
  <unicode hex="0045"/>
  <anchor x="340" y="700" name="top"/>
  <anchor x="582" y="0" name="bottom"/>
  <outline>
    <contour>
      <point x="77" y="0" type="line"/>
      <point x="582" y="0" type="line"/>
      <point x="582" y="68" type="line"/>
      <point x="154" y="68" type="line"/>
      <point x="154" y="320" type="line"/>
      <point x="431" y="320" type="line"/>
      <point x="431" y="387" type="line"/>
      <point x="154" y="387" type="line"/>
      <point x="154" y="632" type="line"/>
      <point x="578" y="632" type="line"/>
      <point x="578" y="700" type="line"/>
      <point x="77" y="700" type="line"/>
    </contour>
  </outline>
</glyph>
<glyph name="F" format="2">
  <advance width="607"/>
  <unicode hex="0046"/>
  <outline>
    <contour>
      <point x="77" y="0" type="line"/>
      <point x="154" y="0" type="line"/>
      <point x="154" y="315" type="line"/>
      <point x="432" y="315" type="line"/>
      <point x="432" y="382" type="line"/>
      <point x="154" y="382" type="line"/>
      <point x="154" y="632" type="line"/>
      <point x="578" y="632" type="line"/>
      <point x="578" y="700" type="line"/>
      <point x="77" y="700" type="line"/>
    </contour>
  </outline>
</glyph>
<glyph name="G" format="2">
  <advance width="788"/>
  <unicode hex="0047"/>
  <anchor x="404" y="700" name="top"/>
  <anchor x="409" y="0" name="bottom"/>
  <outline>
    <contour>
      <point x="406" y="-11" type="curve" smooth="yes"/>
      <point x="598" y="-11"/>
      <point x="746" y="140"/>
      <point x="746" y="335" type="curve" smooth="yes"/>
      <point x="746" y="366" type="line"/>
      <point x="417" y="366" type="line"/>
      <point x="417" y="298" type="line"/>
      <point x="668" y="298" type="line"/>
      <point x="656" y="161"/>
      <point x="547" y="60"/>
      <point x="405" y="60" type="curve" smooth="yes"/>
      <point x="245" y="60"/>
      <point x="122" y="186"/>
      <point x="122" y="350" type="curve" smooth="yes"/>
      <point x="122" y="514"/>
      <point x="245" y="640"/>
      <point x="405" y="640" type="curve" smooth="yes"/>
      <point x="491" y="640"/>
      <point x="575" y="604"/>
      <point x="629" y="543" type="curve"/>
      <point x="681" y="596" type="line"/>
      <point x="613" y="669"/>
      <point x="513" y="711"/>
      <point x="405" y="711" type="curve" smooth="yes"/>
      <point x="203" y="711"/>
      <point x="44" y="551"/>
      <point x="44" y="350" type="curve" smooth="yes"/>
      <point x="44" y="149"/>
      <point x="204" y="-11"/>
    </contour>
  </outline>
</glyph>
<glyph name="H" format="2">
  <advance width="715"/>
  <unicode hex="0048"/>
  <anchor x="357" y="700" name="top"/>
  <outline>
    <contour>
      <point x="77" y="0" type="line"/>
      <point x="154" y="0" type="line"/>
      <point x="154" y="318" type="line"/>
      <point x="561" y="318" type="line"/>
      <point x="561" y="0" type="line"/>
      <point x="638" y="0" type="line"/>
      <point x="638" y="700" type="line"/>
      <point x="561" y="700" type="line"/>
      <point x="561" y="387" type="line"/>
      <point x="154" y="387" type="line"/>
      <point x="154" y="700" type="line"/>
      <point x="77" y="700" type="line"/>
    </contour>
  </outline>
</glyph>
<glyph name="I" format="2">
  <advance width="231"/>
  <unicode hex="0049"/>
  <anchor x="116" y="700" name="top"/>
  <anchor x="154" y="0" name="bottom"/>
  <outline>
    <contour>
      <point x="77" y="0" type="line"/>
      <point x="154" y="0" type="line"/>
      <point x="154" y="700" type="line"/>
      <point x="77" y="700" type="line"/>
    </contour>
  </outline>
</glyph>
<glyph name="J" format="2">
  <advance width="600"/>
  <unicode hex="004A"/>
  <anchor x="499" y="700" name="top"/>
  <outline>
    <contour>
      <point x="271" y="-11" type="curve" smooth="yes"/>
      <point x="434" y="-11"/>
      <point x="537" y="96"/>
      <point x="537" y="264" type="curve" smooth="yes"/>
      <point x="537" y="700" type="line"/>
      <point x="460" y="700" type="line"/>
      <point x="460" y="265" type="line" smooth="yes"/>
      <point x="460" y="140"/>
      <point x="386" y="60"/>
      <point x="272" y="60" type="curve" smooth="yes"/>
      <point x="185" y="60"/>
      <point x="123" y="105"/>
      <point x="87" y="197" type="curve"/>
      <point x="17" y="168" type="line"/>
      <point x="58" y="54"/>
      <point x="151" y="-11"/>
    </contour>
  </outline>
</glyph>
<glyph name="K" format="2">
  <advance width="617"/>
  <unicode hex="004B"/>
  <anchor x="330" y="0" name="bottom"/>
  <outline>
    <contour>
      <point x="77" y="0" type="line"/>
      <point x="154" y="0" type="line"/>
      <point x="154" y="336" type="line"/>
      <point x="517" y="0" type="line"/>
      <point x="625" y="0" type="line"/>
      <point x="237" y="357" type="line"/>
      <point x="617" y="700" type="line"/>
      <point x="516" y="700" type="line"/>
      <point x="154" y="368" type="line"/>
      <point x="154" y="700" type="line"/>
      <point x="77" y="700" type="line"/>
    </contour>
  </outline>
</glyph>
<glyph name="M" format="2">
  <advance width="847"/>
  <unicode hex="004D"/>
  <outline>
    <contour>
      <point x="77" y="0" type="line"/>
      <point x="149" y="0" type="line"/>
      <point x="149" y="611" type="line"/>
      <point x="423" y="50" type="line"/>
      <point x="697" y="612" type="line"/>
      <point x="697" y="0" type="line"/>
      <point x="770" y="0" type="line"/>
      <point x="770" y="700" type="line"/>
      <point x="662" y="700" type="line"/>
      <point x="424" y="203" type="line"/>
      <point x="185" y="700" type="line"/>
      <point x="77" y="700" type="line"/>
    </contour>
  </outline>
</glyph>
<glyph name="N" format="2">
  <advance width="725"/>
  <unicode hex="004E"/>
  <anchor x="362" y="700" name="top"/>
  <anchor x="362" y="0" name="bottom"/>
  <outline>
    <contour>
      <point x="77" y="0" type="line"/>
      <point x="150" y="0" type="line"/>
      <point x="150" y="583" type="line"/>
      <point x="580" y="0" type="line"/>
      <point x="648" y="0" type="line"/>
      <point x="648" y="700" type="line"/>
      <point x="575" y="700" type="line"/>
      <point x="575" y="132" type="line"/>
      <point x="154" y="700" type="line"/>
      <point x="77" y="700" type="line"/>
    </contour>
  </outline>
</glyph>
<glyph name="O" format="2">
  <advance width="809"/>
  <unicode hex="004F"/>
  <anchor x="405" y="700" name="top"/>
  <outline>
    <contour>
      <point x="405" y="-11" type="curve" smooth="yes"/>
      <point x="606" y="-11"/>
      <point x="765" y="148"/>
      <point x="765" y="350" type="curve" smooth="yes"/>
      <point x="765" y="552"/>
      <point x="606" y="711"/>
      <point x="405" y="711" type="curve" smooth="yes"/>
      <point x="203" y="711"/>
      <point x="44" y="552"/>
      <point x="44" y="350" type="curve" smooth="yes"/>
      <point x="44" y="148"/>
      <point x="203" y="-11"/>
    </contour>
    <contour>
      <point x="405" y="60" type="curve" smooth="yes"/>
      <point x="245" y="60"/>
      <point x="122" y="187"/>
      <point x="122" y="350" type="curve" smooth="yes"/>
      <point x="122" y="514"/>
      <point x="245" y="640"/>
      <point x="405" y="640" type="curve" smooth="yes"/>
      <point x="564" y="640"/>
      <point x="687" y="514"/>
      <point x="687" y="350" type="curve" smooth="yes"/>
      <point x="687" y="187"/>
      <point x="564" y="60"/>
    </contour>
  </outline>
</glyph>
<glyph name="P" format="2">
  <advance width="647"/>
  <unicode hex="0050"/>
  <outline>
    <contour>
      <point x="77" y="0" type="line"/>
      <point x="154" y="0" type="line"/>
      <point x="154" y="295" type="line"/>
      <point x="381" y="295" type="line" smooth="yes"/>
      <point x="517" y="295"/>
      <point x="607" y="376"/>
      <point x="607" y="498" type="curve" smooth="yes"/>
      <point x="607" y="620"/>
      <point x="518" y="700"/>
      <point x="381" y="700" type="curve" smooth="yes"/>
      <point x="77" y="700" type="line"/>
    </contour>
    <contour>
      <point x="154" y="362" type="line"/>
      <point x="154" y="631" type="line"/>
      <point x="375" y="631" type="line" smooth="yes"/>
      <point x="470" y="631"/>
      <point x="530" y="580"/>
      <point x="530" y="497" type="curve" smooth="yes"/>
      <point x="530" y="414"/>
      <point x="470" y="362"/>
      <point x="375" y="362" type="curve" smooth="yes"/>
    </contour>
  </outline>
</glyph>
<glyph name="Q" format="2">
  <advance width="809"/>
  <unicode hex="0051"/>
  <outline>
    <contour>
      <point x="645" y="-16" type="line"/>
      <point x="724" y="-5" type="line"/>
      <point x="650" y="84" type="line"/>
      <point x="721" y="149"/>
      <point x="765" y="244"/>
      <point x="765" y="350" type="curve" smooth="yes"/>
      <point x="765" y="552"/>
      <point x="606" y="711"/>
      <point x="405" y="711" type="curve" smooth="yes"/>
      <point x="203" y="711"/>
      <point x="44" y="552"/>
      <point x="44" y="350" type="curve" smooth="yes"/>
      <point x="44" y="148"/>
      <point x="203" y="-11"/>
      <point x="405" y="-11" type="curve" smooth="yes"/>
      <point x="475" y="-11"/>
      <point x="541" y="9"/>
      <point x="596" y="43" type="curve"/>
    </contour>
    <contour>
      <point x="405" y="60" type="curve" smooth="yes"/>
      <point x="245" y="60"/>
      <point x="122" y="187"/>
      <point x="122" y="350" type="curve" smooth="yes"/>
      <point x="122" y="514"/>
      <point x="245" y="640"/>
      <point x="405" y="640" type="curve" smooth="yes"/>
      <point x="564" y="640"/>
      <point x="687" y="514"/>
      <point x="687" y="350" type="curve" smooth="yes"/>
      <point x="687" y="267"/>
      <point x="655" y="193"/>
      <point x="602" y="140" type="curve"/>
      <point x="527" y="230" type="line"/>
      <point x="448" y="218" type="line"/>
      <point x="548" y="99" type="line"/>
      <point x="507" y="74"/>
      <point x="458" y="60"/>
    </contour>
  </outline>
</glyph>
<glyph name="R" format="2">
  <advance width="645"/>
  <unicode hex="0052"/>
  <anchor x="317" y="700" name="top"/>
  <anchor x="319" y="0" name="bottom"/>
  <outline>
    <contour>
      <point x="77" y="0" type="line"/>
      <point x="154" y="0" type="line"/>
      <point x="154" y="301" type="line"/>
      <point x="378" y="301" type="line"/>
      <point x="528" y="0" type="line"/>
      <point x="613" y="0" type="line"/>
      <point x="456" y="311" type="line"/>
      <point x="547" y="337"/>
      <point x="605" y="407"/>
      <point x="605" y="499" type="curve" smooth="yes"/>
      <point x="605" y="620"/>
      <point x="514" y="700"/>
      <point x="377" y="700" type="curve" smooth="yes"/>
      <point x="77" y="700" type="line"/>
    </contour>
    <contour>
      <point x="154" y="366" type="line"/>
      <point x="154" y="631" type="line"/>
      <point x="372" y="631" type="line" smooth="yes"/>
      <point x="466" y="631"/>
      <point x="528" y="579"/>
      <point x="528" y="499" type="curve" smooth="yes"/>
      <point x="528" y="418"/>
      <point x="466" y="366"/>
      <point x="372" y="366" type="curve" smooth="yes"/>
    </contour>
  </outline>
</glyph>
<glyph name="T" format="2">
  <advance width="617"/>
  <unicode hex="0054"/>
  <anchor x="308" y="700" name="top"/>
  <anchor x="308" y="0" name="bottom"/>
  <outline>
    <contour>
      <point x="270" y="0" type="line"/>
      <point x="347" y="0" type="line"/>
      <point x="347" y="631" type="line"/>
      <point x="600" y="631" type="line"/>
      <point x="600" y="700" type="line"/>
      <point x="17" y="700" type="line"/>
      <point x="17" y="631" type="line"/>
      <point x="270" y="631" type="line"/>
    </contour>
  </outline>
</glyph>
<glyph name="U" format="2">
  <advance width="704"/>
  <unicode hex="0055"/>
  <anchor x="352" y="700" name="top"/>
  <anchor x="433" y="0" name="bottom"/>
  <outline>
    <contour>
      <point x="352" y="-11" type="curve" smooth="yes"/>
      <point x="529" y="-11"/>
      <point x="641" y="108"/>
      <point x="641" y="296" type="curve" smooth="yes"/>
      <point x="641" y="700" type="line"/>
      <point x="564" y="700" type="line"/>
      <point x="564" y="296" type="line" smooth="yes"/>
      <point x="564" y="152"/>
      <point x="481" y="60"/>
      <point x="352" y="60" type="curve" smooth="yes"/>
      <point x="223" y="60"/>
      <point x="140" y="152"/>
      <point x="140" y="296" type="curve" smooth="yes"/>
      <point x="140" y="700" type="line"/>
      <point x="63" y="700" type="line"/>
      <point x="63" y="296" type="line" smooth="yes"/>
      <point x="63" y="107"/>
      <point x="174" y="-11"/>
    </contour>
  </outline>
</glyph>
<glyph name="V" format="2">
  <advance width="679"/>
  <unicode hex="0056"/>
  <outline>
    <contour>
      <point x="291" y="0" type="line"/>
      <point x="384" y="0" type="line"/>
      <point x="675" y="700" type="line"/>
      <point x="597" y="700" type="line"/>
      <point x="340" y="72" type="line"/>
      <point x="87" y="700" type="line"/>
      <point x="4" y="700" type="line"/>
    </contour>
  </outline>
</glyph>
<glyph name="W" format="2">
  <advance width="882"/>
  <unicode hex="0057"/>
  <anchor x="439" y="700" name="top"/>
  <outline>
    <contour>
      <point x="186" y="0" type="line"/>
      <point x="264" y="0" type="line"/>
      <point x="442" y="593" type="line"/>
      <point x="619" y="0" type="line"/>
      <point x="697" y="0" type="line"/>
      <point x="848" y="700" type="line"/>
      <point x="773" y="700" type="line"/>
      <point x="653" y="124" type="line"/>
      <point x="480" y="700" type="line"/>
      <point x="405" y="700" type="line"/>
      <point x="232" y="122" type="line"/>
      <point x="113" y="700" type="line"/>
      <point x="35" y="700" type="line"/>
    </contour>
  </outline>
</glyph>
<glyph name="X" format="2">
  <advance width="638"/>
  <unicode hex="0058"/>
  <outline>
    <contour>
      <point x="3" y="0" type="line"/>
      <point x="93" y="0" type="line"/>
      <point x="318" y="305" type="line"/>
      <point x="542" y="0" type="line"/>
      <point x="635" y="0" type="line"/>
      <point x="364" y="364" type="line"/>
      <point x="614" y="700" type="line"/>
      <point x="524" y="700" type="line"/>
      <point x="319" y="422" type="line"/>
      <point x="114" y="700" type="line"/>
      <point x="20" y="700" type="line"/>
      <point x="273" y="363" type="line"/>
    </contour>
  </outline>
</glyph>
<glyph name="bracketleft" format="2">
  <advance width="347"/>
  <unicode hex="005B"/>
  <outline>
    <contour>
      <point x="57" y="-207" type="line"/>
      <point x="309" y="-207" type="line"/>
      <point x="309" y="-147" type="line"/>
      <point x="128" y="-147" type="line"/>
      <point x="128" y="640" type="line"/>
      <point x="309" y="640" type="line"/>
      <point x="309" y="700" type="line"/>
      <point x="57" y="700" type="line"/>
    </contour>
  </outline>
</glyph>
<glyph name="backslash" format="2">
  <advance width="462"/>
  <unicode hex="005C"/>
  <outline>
    <contour>
      <point x="451" y="-204" type="line"/>
      <point x="529" y="-204" type="line"/>
      <point x="107" y="700" type="line"/>
      <point x="30" y="700" type="line"/>
    </contour>
  </outline>
</glyph>
<glyph name="underscore" format="2">
  <advance width="482"/>
  <unicode hex="005F"/>
  <outline>
    <contour>
      <point x="-1" y="-137" type="line"/>
      <point x="483" y="-137" type="line"/>
      <point x="483" y="-80" type="line"/>
      <point x="-1" y="-80" type="line"/>
    </contour>
  </outline>
</glyph>
<glyph name="a" format="2">
  <advance width="516"/>
  <unicode hex="0061"/>
  <note>
Version created Mon Aug  6 16:22:34 2018
</note>
  <anchor x="249" y="501" name="top"/>
  <anchor x="455" y="0" name="bottom"/>
  <outline>
    <contour>
      <point x="221" y="-9" type="curve" smooth="yes"/>
      <point x="284" y="-9"/>
      <point x="338" y="10"/>
      <point x="383" y="49" type="curve"/>
      <point x="383" y="0" type="line"/>
      <point x="455" y="0" type="line"/>
      <point x="455" y="337" type="line" smooth="yes"/>
      <point x="455" y="449"/>
      <point x="384" y="511"/>
      <point x="257" y="511" type="curve" smooth="yes"/>
      <point x="196" y="511"/>
      <point x="137" y="496"/>
      <point x="65" y="461" type="curve"/>
      <point x="93" y="404" type="line"/>
      <point x="153" y="435"/>
      <point x="201" y="448"/>
      <point x="250" y="448" type="curve" smooth="yes"/>
      <point x="337" y="448"/>
      <point x="383" y="407"/>
      <point x="383" y="327" type="curve" smooth="yes"/>
      <point x="383" y="261" type="line"/>
      <point x="340" y="283"/>
      <point x="289" y="295"/>
      <point x="236" y="295" type="curve" smooth="yes"/>
      <point x="113" y="295"/>
      <point x="36" y="236"/>
      <point x="36" y="142" type="curve" smooth="yes"/>
      <point x="36" y="52"/>
      <point x="111" y="-9"/>
    </contour>
    <contour>
      <point x="107" y="144" type="curve" smooth="yes"/>
      <point x="107" y="203"/>
      <point x="158" y="241"/>
      <point x="238" y="241" type="curve" smooth="yes"/>
      <point x="296" y="241"/>
      <point x="342" y="229"/>
      <point x="383" y="201" type="curve"/>
      <point x="383" y="107" type="line"/>
      <point x="343" y="67"/>
      <point x="294" y="49"/>
      <point x="234" y="49" type="curve" smooth="yes"/>
      <point x="159" y="49"/>
      <point x="107" y="88"/>
    </contour>
  </outline>
</glyph>
<glyph name="d" format="2">
  <advance width="590"/>
  <unicode hex="0064"/>
  <outline>
    <contour>
      <point x="292" y="-8" type="curve" smooth="yes"/>
      <point x="355" y="-8"/>
      <point x="411" y="13"/>
      <point x="454" y="53" type="curve"/>
      <point x="454" y="0" type="line"/>
      <point x="527" y="0" type="line"/>
      <point x="527" y="717" type="line"/>
      <point x="453" y="700" type="line"/>
      <point x="453" y="452" type="line"/>
      <point x="408" y="489"/>
      <point x="351" y="509"/>
      <point x="293" y="509" type="curve" smooth="yes"/>
      <point x="150" y="509"/>
      <point x="40" y="396"/>
      <point x="40" y="251" type="curve" smooth="yes"/>
      <point x="40" y="105"/>
      <point x="151" y="-8"/>
    </contour>
    <contour>
      <point x="299" y="57" type="curve" smooth="yes"/>
      <point x="194" y="57"/>
      <point x="113" y="142"/>
      <point x="113" y="252" type="curve" smooth="yes"/>
      <point x="113" y="362"/>
      <point x="194" y="444"/>
      <point x="299" y="444" type="curve" smooth="yes"/>
      <point x="361" y="444"/>
      <point x="418" y="418"/>
      <point x="453" y="375" type="curve"/>
      <point x="453" y="127" type="line"/>
      <point x="418" y="83"/>
      <point x="362" y="57"/>
    </contour>
  </outline>
</glyph>
<glyph name="e" format="2">
  <advance width="564"/>
  <unicode hex="0065"/>
  <anchor x="286" y="501" name="top"/>
  <anchor x="374" y="0" name="bottom"/>
  <outline>
    <contour>
      <point x="298" y="-9" type="curve" smooth="yes"/>
      <point x="370" y="-9"/>
      <point x="429" y="11"/>
      <point x="485" y="53" type="curve"/>
      <point x="439" y="102" type="line"/>
      <point x="405" y="73"/>
      <point x="353" y="56"/>
      <point x="301" y="56" type="curve" smooth="yes"/>
      <point x="202" y="56"/>
      <point x="124" y="129"/>
      <point x="113" y="228" type="curve"/>
      <point x="524" y="228" type="line"/>
      <point x="524" y="251" type="line" smooth="yes"/>
      <point x="524" y="395"/>
      <point x="420" y="509"/>
      <point x="287" y="509" type="curve" smooth="yes"/>
      <point x="149" y="509"/>
      <point x="40" y="395"/>
      <point x="40" y="251" type="curve" smooth="yes"/>
      <point x="40" y="104"/>
      <point x="153" y="-9"/>
    </contour>
    <contour>
      <point x="115" y="287" type="line"/>
      <point x="129" y="379"/>
      <point x="198" y="444"/>
      <point x="285" y="444" type="curve" smooth="yes"/>
      <point x="368" y="444"/>
      <point x="437" y="376"/>
      <point x="450" y="287" type="curve"/>
    </contour>
  </outline>
</glyph>
<glyph name="f" format="2">
  <advance width="374"/>
  <unicode hex="0066"/>
  <outline>
    <contour>
      <point x="135" y="0" type="line"/>
      <point x="208" y="0" type="line"/>
      <point x="208" y="438" type="line"/>
      <point x="357" y="438" type="line"/>
      <point x="357" y="501" type="line"/>
      <point x="208" y="501" type="line"/>
      <point x="208" y="594" type="line" smooth="yes"/>
      <point x="208" y="655"/>
      <point x="236" y="683"/>
      <point x="295" y="683" type="curve" smooth="yes"/>
      <point x="318" y="683"/>
      <point x="334" y="680"/>
      <point x="357" y="673" type="curve"/>
      <point x="357" y="739" type="line"/>
      <point x="337" y="746"/>
      <point x="317" y="748"/>
      <point x="290" y="748" type="curve" smooth="yes"/>
      <point x="190" y="748"/>
      <point x="135" y="694"/>
      <point x="135" y="596" type="curve" smooth="yes"/>
      <point x="135" y="501" type="line"/>
      <point x="17" y="501" type="line"/>
      <point x="17" y="438" type="line"/>
      <point x="135" y="438" type="line"/>
    </contour>
  </outline>
</glyph>
<glyph name="g" format="2">
  <advance width="586"/>
  <unicode hex="0067"/>
  <note>
Version created Sun Jan 13 16:53:00 2019
</note>
  <anchor x="292" y="501" name="top"/>
  <outline>
    <contour>
      <point x="307" y="-214" type="curve" smooth="yes"/>
      <point x="446" y="-214"/>
      <point x="523" y="-143"/>
      <point x="523" y="-15" type="curve" smooth="yes"/>
      <point x="523" y="501" type="line"/>
      <point x="450" y="501" type="line"/>
      <point x="450" y="451" type="line"/>
      <point x="404" y="489"/>
      <point x="349" y="510"/>
      <point x="292" y="510" type="curve" smooth="yes"/>
      <point x="150" y="510"/>
      <point x="40" y="397"/>
      <point x="40" y="253" type="curve" smooth="yes"/>
      <point x="40" y="108"/>
      <point x="151" y="-4"/>
      <point x="290" y="-4" type="curve" smooth="yes"/>
      <point x="349" y="-4"/>
      <point x="404" y="16"/>
      <point x="449" y="54" type="curve"/>
      <point x="449" y="-16" type="line" smooth="yes"/>
      <point x="449" y="-104"/>
      <point x="399" y="-150"/>
      <point x="304" y="-150" type="curve" smooth="yes"/>
      <point x="252" y="-150"/>
      <point x="203" y="-136"/>
      <point x="143" y="-104" type="curve"/>
      <point x="111" y="-162" type="line"/>
      <point x="167" y="-195"/>
      <point x="237" y="-214"/>
    </contour>
    <contour>
      <point x="296" y="61" type="curve" smooth="yes"/>
      <point x="193" y="61"/>
      <point x="113" y="145"/>
      <point x="113" y="253" type="curve" smooth="yes"/>
      <point x="113" y="361"/>
      <point x="192" y="444"/>
      <point x="296" y="444" type="curve" smooth="yes"/>
      <point x="359" y="444"/>
      <point x="415" y="419"/>
      <point x="449" y="376" type="curve"/>
      <point x="449" y="130" type="line"/>
      <point x="415" y="86"/>
      <point x="360" y="61"/>
    </contour>
  </outline>
</glyph>
<glyph name="h" format="2">
  <advance width="549"/>
  <unicode hex="0068"/>
  <anchor x="99" y="700" name="top"/>
  <outline>
    <contour>
      <point x="63" y="0" type="line"/>
      <point x="137" y="0" type="line"/>
      <point x="137" y="369" type="line"/>
      <point x="167" y="418"/>
      <point x="215" y="446"/>
      <point x="275" y="446" type="curve" smooth="yes"/>
      <point x="361" y="446"/>
      <point x="415" y="391"/>
      <point x="415" y="302" type="curve" smooth="yes"/>
      <point x="415" y="0" type="line"/>
      <point x="488" y="0" type="line"/>
      <point x="488" y="317" type="line" smooth="yes"/>
      <point x="488" y="432"/>
      <point x="409" y="511"/>
      <point x="295" y="511" type="curve" smooth="yes"/>
      <point x="230" y="511"/>
      <point x="176" y="488"/>
      <point x="137" y="442" type="curve"/>
      <point x="137" y="717" type="line"/>
      <point x="63" y="700" type="line"/>
    </contour>
  </outline>
</glyph>
<glyph name="j" format="2">
  <advance width="200"/>
  <unicode hex="006A"/>
  <outline>
    <contour>
      <point x="100" y="597" type="curve" smooth="yes"/>
      <point x="128" y="597"/>
      <point x="150" y="620"/>
      <point x="150" y="647" type="curve" smooth="yes"/>
      <point x="150" y="675"/>
      <point x="128" y="697"/>
      <point x="100" y="697" type="curve" smooth="yes"/>
      <point x="73" y="697"/>
      <point x="50" y="675"/>
      <point x="50" y="647" type="curve" smooth="yes"/>
      <point x="50" y="620"/>
      <point x="73" y="597"/>
    </contour>
    <contour>
      <point x="8" y="-214" type="curve" smooth="yes"/>
      <point x="90" y="-214"/>
      <point x="137" y="-169"/>
      <point x="137" y="-88" type="curve" smooth="yes"/>
      <point x="137" y="501" type="line"/>
      <point x="63" y="501" type="line"/>
      <point x="63" y="-82" type="line" smooth="yes"/>
      <point x="63" y="-130"/>
      <point x="45" y="-150"/>
      <point x="-1" y="-150" type="curve" smooth="yes"/>
      <point x="-16" y="-150"/>
      <point x="-26" y="-149"/>
      <point x="-38" y="-146" type="curve"/>
      <point x="-38" y="-208" type="line"/>
      <point x="-27" y="-211"/>
      <point x="-11" y="-214"/>
    </contour>
  </outline>
</glyph>
<glyph name="k" format="2">
  <advance width="494"/>
  <unicode hex="006B"/>
  <anchor x="248" y="0" name="bottom"/>
  <outline>
    <contour>
      <point x="63" y="0" type="line"/>
      <point x="137" y="0" type="line"/>
      <point x="137" y="240" type="line"/>
      <point x="401" y="0" type="line"/>
      <point x="502" y="0" type="line"/>
      <point x="214" y="263" type="line"/>
      <point x="489" y="501" type="line"/>
      <point x="399" y="501" type="line"/>
      <point x="137" y="275" type="line"/>
      <point x="137" y="717" type="line"/>
      <point x="63" y="700" type="line"/>
    </contour>
  </outline>
</glyph>
<glyph name="m" format="2">
  <advance width="859"/>
  <unicode hex="006D"/>
  <outline>
    <contour>
      <point x="63" y="0" type="line"/>
      <point x="137" y="0" type="line"/>
      <point x="137" y="373" type="line"/>
      <point x="168" y="421"/>
      <point x="211" y="446"/>
      <point x="265" y="446" type="curve" smooth="yes"/>
      <point x="344" y="446"/>
      <point x="394" y="391"/>
      <point x="394" y="302" type="curve" smooth="yes"/>
      <point x="394" y="0" type="line"/>
      <point x="467" y="0" type="line"/>
      <point x="467" y="317" type="line" smooth="yes"/>
      <point x="467" y="334"/>
      <point x="465" y="349"/>
      <point x="462" y="364" type="curve"/>
      <point x="494" y="418"/>
      <point x="540" y="446"/>
      <point x="595" y="446" type="curve" smooth="yes"/>
      <point x="675" y="446"/>
      <point x="725" y="391"/>
      <point x="725" y="302" type="curve" smooth="yes"/>
      <point x="725" y="0" type="line"/>
      <point x="798" y="0" type="line"/>
      <point x="798" y="317" type="line" smooth="yes"/>
      <point x="798" y="432"/>
      <point x="723" y="511"/>
      <point x="614" y="511" type="curve" smooth="yes"/>
      <point x="541" y="511"/>
      <point x="483" y="481"/>
      <point x="442" y="420" type="curve"/>
      <point x="411" y="476"/>
      <point x="354" y="511"/>
      <point x="284" y="511" type="curve" smooth="yes"/>
      <point x="224" y="511"/>
      <point x="175" y="489"/>
      <point x="137" y="446" type="curve"/>
      <point x="137" y="501" type="line"/>
      <point x="63" y="501" type="line"/>
    </contour>
  </outline>
</glyph>
<glyph name="n" format="2">
  <advance width="549"/>
  <unicode hex="006E"/>
  <anchor x="276" y="501" name="top"/>
  <anchor x="276" y="0" name="bottom"/>
  <outline>
    <contour>
      <point x="63" y="0" type="line"/>
      <point x="137" y="0" type="line"/>
      <point x="137" y="369" type="line"/>
      <point x="167" y="418"/>
      <point x="215" y="446"/>
      <point x="275" y="446" type="curve" smooth="yes"/>
      <point x="361" y="446"/>
      <point x="415" y="391"/>
      <point x="415" y="302" type="curve"/>
      <point x="415" y="0" type="line"/>
      <point x="488" y="0" type="line"/>
      <point x="488" y="317" type="line" smooth="yes"/>
      <point x="488" y="432"/>
      <point x="409" y="511"/>
      <point x="295" y="511" type="curve"/>
      <point x="230" y="511"/>
      <point x="176" y="488"/>
      <point x="137" y="442" type="curve"/>
      <point x="137" y="501" type="line"/>
      <point x="63" y="501" type="line"/>
    </contour>
  </outline>
</glyph>
<glyph name="o" format="2">
  <advance width="592"/>
  <unicode hex="006F"/>
  <anchor x="296" y="501" name="top"/>
  <outline>
    <contour>
      <point x="296" y="-10" type="curve" smooth="yes"/>
      <point x="439" y="-10"/>
      <point x="552" y="104"/>
      <point x="552" y="250" type="curve" smooth="yes"/>
      <point x="552" y="396"/>
      <point x="439" y="510"/>
      <point x="296" y="510" type="curve" smooth="yes"/>
      <point x="153" y="510"/>
      <point x="40" y="396"/>
      <point x="40" y="250" type="curve" smooth="yes"/>
      <point x="40" y="104"/>
      <point x="153" y="-10"/>
    </contour>
    <contour>
      <point x="296" y="56" type="curve" smooth="yes"/>
      <point x="194" y="56"/>
      <point x="113" y="141"/>
      <point x="113" y="250" type="curve" smooth="yes"/>
      <point x="113" y="359"/>
      <point x="194" y="444"/>
      <point x="296" y="444" type="curve" smooth="yes"/>
      <point x="398" y="444"/>
      <point x="479" y="359"/>
      <point x="479" y="250" type="curve" smooth="yes"/>
      <point x="479" y="141"/>
      <point x="398" y="56"/>
    </contour>
  </outline>
</glyph>
<glyph name="p" format="2">
  <advance width="590"/>
  <unicode hex="0070"/>
  <outline>
    <contour>
      <point x="63" y="-204" type="line"/>
      <point x="137" y="-204" type="line"/>
      <point x="137" y="50" type="line"/>
      <point x="182" y="13"/>
      <point x="238" y="-8"/>
      <point x="297" y="-8" type="curve" smooth="yes"/>
      <point x="440" y="-8"/>
      <point x="550" y="105"/>
      <point x="550" y="251" type="curve" smooth="yes"/>
      <point x="550" y="396"/>
      <point x="440" y="509"/>
      <point x="298" y="509" type="curve" smooth="yes"/>
      <point x="235" y="509"/>
      <point x="179" y="488"/>
      <point x="136" y="447" type="curve"/>
      <point x="136" y="501" type="line"/>
      <point x="63" y="501" type="line"/>
    </contour>
    <contour>
      <point x="291" y="57" type="curve" smooth="yes"/>
      <point x="229" y="57"/>
      <point x="172" y="83"/>
      <point x="137" y="126" type="curve"/>
      <point x="137" y="374" type="line"/>
      <point x="172" y="418"/>
      <point x="228" y="444"/>
      <point x="291" y="444" type="curve" smooth="yes"/>
      <point x="396" y="444"/>
      <point x="477" y="360"/>
      <point x="477" y="250" type="curve" smooth="yes"/>
      <point x="477" y="140"/>
      <point x="397" y="57"/>
    </contour>
  </outline>
</glyph>
<glyph name="q" format="2">
  <advance width="590"/>
  <unicode hex="0071"/>
  <outline>
    <contour>
      <point x="453" y="-204" type="line"/>
      <point x="527" y="-204" type="line"/>
      <point x="527" y="501" type="line"/>
      <point x="454" y="501" type="line"/>
      <point x="454" y="452" type="line"/>
      <point x="410" y="488"/>
      <point x="353" y="509"/>
      <point x="293" y="509" type="curve" smooth="yes"/>
      <point x="150" y="509"/>
      <point x="40" y="396"/>
      <point x="40" y="251" type="curve" smooth="yes"/>
      <point x="40" y="105"/>
      <point x="151" y="-8"/>
      <point x="292" y="-8" type="curve" smooth="yes"/>
      <point x="354" y="-8"/>
      <point x="410" y="13"/>
      <point x="453" y="52" type="curve"/>
    </contour>
    <contour>
      <point x="299" y="57" type="curve" smooth="yes"/>
      <point x="194" y="57"/>
      <point x="113" y="142"/>
      <point x="113" y="252" type="curve" smooth="yes"/>
      <point x="113" y="362"/>
      <point x="194" y="444"/>
      <point x="299" y="444" type="curve" smooth="yes"/>
      <point x="361" y="444"/>
      <point x="418" y="418"/>
      <point x="453" y="375" type="curve"/>
      <point x="453" y="127" type="line"/>
      <point x="418" y="83"/>
      <point x="362" y="57"/>
    </contour>
  </outline>
</glyph>
<glyph name="r" format="2">
  <advance width="346"/>
  <unicode hex="0072"/>
  <anchor x="181" y="501" name="top"/>
  <anchor x="100" y="0" name="bottom"/>
  <outline>
    <contour>
      <point x="63" y="0" type="line"/>
      <point x="137" y="0" type="line"/>
      <point x="137" y="343" type="line"/>
      <point x="163" y="410"/>
      <point x="210" y="446"/>
      <point x="272" y="446" type="curve" smooth="yes"/>
      <point x="289" y="446"/>
      <point x="306" y="443"/>
      <point x="324" y="437" type="curve"/>
      <point x="324" y="505" type="line"/>
      <point x="309" y="510"/>
      <point x="296" y="512"/>
      <point x="277" y="512" type="curve" smooth="yes"/>
      <point x="216" y="512"/>
      <point x="167" y="482"/>
      <point x="137" y="430" type="curve"/>
      <point x="137" y="501" type="line"/>
      <point x="63" y="501" type="line"/>
    </contour>
  </outline>
</glyph>
<glyph name="s" format="2">
  <advance width="446"/>
  <unicode hex="0073"/>
  <note>
Version created Fri Aug  3 17:49:29 2018
</note>
  <anchor x="222" y="501" name="top"/>
  <anchor x="224" y="0" name="bottom"/>
  <outline>
    <contour>
      <point x="223" y="-10" type="curve" smooth="yes"/>
      <point x="338" y="-10"/>
      <point x="426" y="56"/>
      <point x="426" y="143" type="curve" smooth="yes"/>
      <point x="426" y="221"/>
      <point x="376" y="266"/>
      <point x="276" y="280" type="curve" smooth="yes"/>
      <point x="189" y="292" type="line" smooth="yes"/>
      <point x="123" y="301"/>
      <point x="96" y="323"/>
      <point x="96" y="368" type="curve" smooth="yes"/>
      <point x="96" y="417"/>
      <point x="143" y="451"/>
      <point x="212" y="451" type="curve" smooth="yes"/>
      <point x="267" y="451"/>
      <point x="318" y="433"/>
      <point x="374" y="395" type="curve"/>
      <point x="413" y="445" type="line"/>
      <point x="351" y="490"/>
      <point x="289" y="511"/>
      <point x="216" y="511" type="curve" smooth="yes"/>
      <point x="106" y="511"/>
      <point x="28" y="449"/>
      <point x="28" y="365" type="curve" smooth="yes"/>
      <point x="28" y="287"/>
      <point x="76" y="242"/>
      <point x="176" y="228" type="curve" smooth="yes"/>
      <point x="263" y="216" type="line" smooth="yes"/>
      <point x="327" y="207"/>
      <point x="356" y="183"/>
      <point x="356" y="139" type="curve" smooth="yes"/>
      <point x="356" y="86"/>
      <point x="300" y="49"/>
      <point x="220" y="49" type="curve" smooth="yes"/>
      <point x="161" y="49"/>
      <point x="103" y="73"/>
      <point x="57" y="116" type="curve"/>
      <point x="12" y="68" type="line"/>
      <point x="65" y="18"/>
      <point x="140" y="-10"/>
    </contour>
  </outline>
</glyph>
<glyph name="t" format="2">
  <advance width="365"/>
  <unicode hex="0074"/>
  <anchor x="230" y="0" name="bottom"/>
  <outline>
    <contour>
      <point x="260" y="-10" type="curve" smooth="yes"/>
      <point x="289" y="-10"/>
      <point x="322" y="-6"/>
      <point x="348" y="3" type="curve"/>
      <point x="348" y="68" type="line"/>
      <point x="323" y="58"/>
      <point x="303" y="55"/>
      <point x="275" y="55" type="curve" smooth="yes"/>
      <point x="220" y="55"/>
      <point x="198" y="76"/>
      <point x="198" y="130" type="curve" smooth="yes"/>
      <point x="198" y="438" type="line"/>
      <point x="349" y="438" type="line"/>
      <point x="349" y="501" type="line"/>
      <point x="198" y="501" type="line"/>
      <point x="198" y="647" type="line"/>
      <point x="125" y="628" type="line"/>
      <point x="125" y="501" type="line"/>
      <point x="17" y="501" type="line"/>
      <point x="17" y="438" type="line"/>
      <point x="125" y="438" type="line"/>
      <point x="125" y="111" type="line" smooth="yes"/>
      <point x="125" y="32"/>
      <point x="173" y="-10"/>
    </contour>
  </outline>
</glyph>
<glyph name="u" format="2">
  <advance width="549"/>
  <unicode hex="0075"/>
  <anchor x="274" y="501" name="top"/>
  <anchor x="486" y="0" name="bottom"/>
  <outline>
    <contour>
      <point x="255" y="-10" type="curve" smooth="yes"/>
      <point x="320" y="-10"/>
      <point x="373" y="13"/>
      <point x="412" y="58" type="curve"/>
      <point x="412" y="0" type="line"/>
      <point x="486" y="0" type="line"/>
      <point x="486" y="501" type="line"/>
      <point x="412" y="501" type="line"/>
      <point x="412" y="133" type="line"/>
      <point x="382" y="83"/>
      <point x="334" y="55"/>
      <point x="274" y="55" type="curve" smooth="yes"/>
      <point x="188" y="55"/>
      <point x="134" y="110"/>
      <point x="134" y="199" type="curve" smooth="yes"/>
      <point x="134" y="501" type="line"/>
      <point x="61" y="501" type="line"/>
      <point x="61" y="184" type="line" smooth="yes"/>
      <point x="61" y="69"/>
      <point x="140" y="-10"/>
    </contour>
  </outline>
</glyph>
<glyph name="w" format="2">
  <advance width="703"/>
  <unicode hex="0077"/>
  <anchor x="352" y="501" name="top"/>
  <outline>
    <contour>
      <point x="155" y="0" type="line"/>
      <point x="227" y="0" type="line"/>
      <point x="352" y="401" type="line"/>
      <point x="476" y="0" type="line"/>
      <point x="547" y="0" type="line"/>
      <point x="689" y="501" type="line"/>
      <point x="619" y="501" type="line"/>
      <point x="510" y="101" type="line"/>
      <point x="386" y="501" type="line"/>
      <point x="320" y="501" type="line"/>
      <point x="195" y="101" type="line"/>
      <point x="87" y="501" type="line"/>
      <point x="14" y="501" type="line"/>
    </contour>
  </outline>
</glyph>
<glyph name="x" format="2">
  <advance width="491"/>
  <unicode hex="0078"/>
  <outline>
    <contour>
      <point x="5" y="0" type="line"/>
      <point x="89" y="0" type="line"/>
      <point x="244" y="204" type="line"/>
      <point x="397" y="0" type="line"/>
      <point x="485" y="0" type="line"/>
      <point x="287" y="259" type="line"/>
      <point x="472" y="501" type="line"/>
      <point x="387" y="501" type="line"/>
      <point x="245" y="313" type="line"/>
      <point x="103" y="501" type="line"/>
      <point x="15" y="501" type="line"/>
      <point x="202" y="258" type="line"/>
    </contour>
  </outline>
</glyph>
<glyph name="y" format="2">
  <advance width="510"/>
  <unicode hex="0079"/>
  <anchor x="250" y="501" name="top"/>
  <outline>
    <contour>
      <point x="84" y="-214" type="curve" smooth="yes"/>
      <point x="164" y="-214"/>
      <point x="212" y="-175"/>
      <point x="254" y="-78" type="curve" smooth="yes"/>
      <point x="504" y="501" type="line"/>
      <point x="424" y="501" type="line"/>
      <point x="249" y="90" type="line"/>
      <point x="87" y="501" type="line"/>
      <point x="5" y="501" type="line"/>
      <point x="209" y="1" type="line"/>
      <point x="179" y="-68" type="line" smooth="yes"/>
      <point x="156" y="-121"/>
      <point x="124" y="-146"/>
      <point x="79" y="-146" type="curve" smooth="yes"/>
      <point x="61" y="-146"/>
      <point x="50" y="-145"/>
      <point x="37" y="-142" type="curve"/>
      <point x="37" y="-209" type="line"/>
      <point x="48" y="-212"/>
      <point x="65" y="-214"/>
    </contour>
  </outline>
</glyph>
<glyph name="asciitilde" format="2">
  <advance width="578"/>
  <unicode hex="007E"/>
  <outline>
    <contour>
      <point x="97" y="301" type="line"/>
      <point x="106" y="362"/>
      <point x="130" y="392"/>
      <point x="171" y="392" type="curve" smooth="yes"/>
      <point x="188" y="392"/>
      <point x="203" y="387"/>
      <point x="238" y="369" type="curve" smooth="yes"/>
      <point x="318" y="329" type="line" smooth="yes"/>
      <point x="356" y="309"/>
      <point x="385" y="301"/>
      <point x="411" y="301" type="curve" smooth="yes"/>
      <point x="480" y="301"/>
      <point x="527" y="354"/>
      <point x="538" y="447" type="curve"/>
      <point x="482" y="454" type="line"/>
      <point x="473" y="393"/>
      <point x="449" y="363"/>
      <point x="407" y="363" type="curve" smooth="yes"/>
      <point x="389" y="363"/>
      <point x="372" y="369"/>
      <point x="340" y="385" type="curve" smooth="yes"/>
      <point x="260" y="425" type="line" smooth="yes"/>
      <point x="222" y="446"/>
      <point x="194" y="454"/>
      <point x="167" y="454" type="curve" smooth="yes"/>
      <point x="98" y="454"/>
      <point x="52" y="401"/>
      <point x="40" y="308" type="curve"/>
    </contour>
  </outline>
</glyph>
<glyph name="sterling" format="2">
  <advance width="615"/>
  <unicode hex="00A3"/>
  <outline>
    <contour>
      <point x="457" y="-20" type="curve" smooth="yes"/>
      <point x="522" y="-20"/>
      <point x="569" y="9"/>
      <point x="604" y="69" type="curve"/>
      <point x="549" y="104" type="line"/>
      <point x="527" y="63"/>
      <point x="498" y="44"/>
      <point x="455" y="44" type="curve" smooth="yes"/>
      <point x="442" y="44"/>
      <point x="428" y="46"/>
      <point x="413" y="49" type="curve" smooth="yes"/>
      <point x="214" y="89" type="line"/>
      <point x="231" y="108"/>
      <point x="240" y="134"/>
      <point x="240" y="167" type="curve" smooth="yes"/>
      <point x="240" y="178"/>
      <point x="238" y="191"/>
      <point x="217" y="312" type="curve"/>
      <point x="417" y="312" type="line"/>
      <point x="417" y="369" type="line"/>
      <point x="207" y="369" type="line"/>
      <point x="190" y="469"/>
      <point x="188" y="486"/>
      <point x="188" y="502" type="curve" smooth="yes"/>
      <point x="188" y="594"/>
      <point x="239" y="648"/>
      <point x="332" y="648" type="curve" smooth="yes"/>
      <point x="416" y="648"/>
      <point x="472" y="602"/>
      <point x="492" y="518" type="curve"/>
      <point x="556" y="537" type="line"/>
      <point x="529" y="651"/>
      <point x="451" y="711"/>
      <point x="332" y="711" type="curve" smooth="yes"/>
      <point x="198" y="711"/>
      <point x="117" y="628"/>
      <point x="117" y="499" type="curve" smooth="yes"/>
      <point x="117" y="480"/>
      <point x="119" y="459"/>
      <point x="135" y="369" type="curve"/>
      <point x="40" y="369" type="line"/>
      <point x="40" y="312" type="line"/>
      <point x="145" y="312" type="line"/>
      <point x="170" y="174"/>
      <point x="170" y="165"/>
      <point x="170" y="157" type="curve" smooth="yes"/>
      <point x="170" y="129"/>
      <point x="161" y="107"/>
      <point x="144" y="94" type="curve"/>
      <point x="85" y="90"/>
      <point x="41" y="59"/>
      <point x="8" y="-1" type="curve"/>
      <point x="62" y="-37" type="line"/>
      <point x="85" y="10"/>
      <point x="115" y="31"/>
      <point x="162" y="31" type="curve" smooth="yes"/>
      <point x="174" y="31"/>
      <point x="187" y="30"/>
      <point x="201" y="27" type="curve" smooth="yes"/>
      <point x="400" y="-14" type="line" smooth="yes"/>
      <point x="420" y="-18"/>
      <point x="439" y="-20"/>
    </contour>
  </outline>
</glyph>
<glyph name="yen" format="2">
  <advance width="641"/>
  <unicode hex="00A5"/>
  <outline>
    <contour>
      <point x="282" y="0" type="line"/>
      <point x="359" y="0" type="line"/>
      <point x="359" y="134" type="line"/>
      <point x="546" y="134" type="line"/>
      <point x="546" y="188" type="line"/>
      <point x="359" y="188" type="line"/>
      <point x="359" y="263" type="line"/>
      <point x="546" y="263" type="line"/>
      <point x="546" y="317" type="line"/>
      <point x="382" y="317" type="line"/>
      <point x="633" y="700" type="line"/>
      <point x="546" y="700" type="line"/>
      <point x="323" y="353" type="line"/>
      <point x="98" y="700" type="line"/>
      <point x="8" y="700" type="line"/>
      <point x="261" y="317" type="line"/>
      <point x="95" y="317" type="line"/>
      <point x="95" y="263" type="line"/>
      <point x="282" y="263" type="line"/>
      <point x="282" y="188" type="line"/>
      <point x="95" y="188" type="line"/>
      <point x="95" y="134" type="line"/>
      <point x="282" y="134" type="line"/>
    </contour>
  </outline>
</glyph>
<glyph name="uni00A6" format="2">
  <advance width="274"/>
  <unicode hex="00A6"/>
  <outline>
    <contour>
      <point x="103" y="288" type="line"/>
      <point x="171" y="288" type="line"/>
      <point x="171" y="700" type="line"/>
      <point x="103" y="700" type="line"/>
    </contour>
    <contour>
      <point x="103" y="-204" type="line"/>
      <point x="171" y="-204" type="line"/>
      <point x="171" y="208" type="line"/>
      <point x="103" y="208" type="line"/>
    </contour>
  </outline>
</glyph>
<glyph name="section" format="2">
  <advance width="566"/>
  <unicode hex="00A7"/>
  <outline>
    <contour>
      <point x="280" y="-50" type="curve" smooth="yes"/>
      <point x="383" y="-50"/>
      <point x="452" y="4"/>
      <point x="452" y="86" type="curve" smooth="yes"/>
      <point x="452" y="128"/>
      <point x="436" y="161"/>
      <point x="402" y="187" type="curve"/>
      <point x="467" y="206"/>
      <point x="507" y="252"/>
      <point x="507" y="314" type="curve" smooth="yes"/>
      <point x="507" y="387"/>
      <point x="469" y="426"/>
      <point x="367" y="459" type="curve" smooth="yes"/>
      <point x="258" y="495" type="line" smooth="yes"/>
      <point x="205" y="512"/>
      <point x="181" y="537"/>
      <point x="181" y="576" type="curve" smooth="yes"/>
      <point x="181" y="625"/>
      <point x="220" y="655"/>
      <point x="285" y="655" type="curve" smooth="yes"/>
      <point x="328" y="655"/>
      <point x="380" y="639"/>
      <point x="435" y="608" type="curve"/>
      <point x="465" y="661" type="line"/>
      <point x="406" y="692"/>
      <point x="343" y="710"/>
      <point x="286" y="710" type="curve" smooth="yes"/>
      <point x="182" y="710"/>
      <point x="113" y="655"/>
      <point x="113" y="573" type="curve" smooth="yes"/>
      <point x="113" y="531"/>
      <point x="130" y="497"/>
      <point x="163" y="472" type="curve"/>
      <point x="99" y="454"/>
      <point x="59" y="408"/>
      <point x="59" y="345" type="curve" smooth="yes"/>
      <point x="59" y="273"/>
      <point x="96" y="234"/>
      <point x="198" y="201" type="curve" smooth="yes"/>
      <point x="308" y="165" type="line" smooth="yes"/>
      <point x="361" y="148"/>
      <point x="384" y="122"/>
      <point x="384" y="84" type="curve" smooth="yes"/>
      <point x="384" y="35"/>
      <point x="345" y="5"/>
      <point x="280" y="5" type="curve" smooth="yes"/>
      <point x="237" y="5"/>
      <point x="187" y="21"/>
      <point x="130" y="51" type="curve"/>
      <point x="101" y="-2" type="line"/>
      <point x="159" y="-33"/>
      <point x="222" y="-50"/>
    </contour>
    <contour>
      <point x="340" y="219" type="curve"/>
      <point x="336" y="221"/>
      <point x="333" y="222"/>
      <point x="329" y="223" type="curve" smooth="yes"/>
      <point x="214" y="260" type="line" smooth="yes"/>
      <point x="150" y="282"/>
      <point x="123" y="309"/>
      <point x="123" y="350" type="curve" smooth="yes"/>
      <point x="123" y="399"/>
      <point x="162" y="433"/>
      <point x="226" y="440" type="curve"/>
      <point x="229" y="438"/>
      <point x="232" y="437"/>
      <point x="236" y="436" type="curve" smooth="yes"/>
      <point x="351" y="399" type="line" smooth="yes"/>
      <point x="415" y="378"/>
      <point x="442" y="351"/>
      <point x="442" y="309" type="curve" smooth="yes"/>
      <point x="442" y="260"/>
      <point x="403" y="226"/>
    </contour>
  </outline>
</glyph>
<glyph name="copyright" format="2">
  <advance width="804"/>
  <unicode hex="00A9"/>
  <outline>
    <contour>
      <point x="413" y="166" type="curve" smooth="yes"/>
      <point x="466" y="166"/>
      <point x="514" y="186"/>
      <point x="552" y="223" type="curve"/>
      <point x="516" y="262" type="line"/>
      <point x="486" y="232"/>
      <point x="452" y="218"/>
      <point x="414" y="218" type="curve" smooth="yes"/>
      <point x="344" y="218"/>
      <point x="289" y="275"/>
      <point x="289" y="350" type="curve" smooth="yes"/>
      <point x="289" y="425"/>
      <point x="343" y="483"/>
      <point x="414" y="483" type="curve" smooth="yes"/>
      <point x="451" y="483"/>
      <point x="489" y="467"/>
      <point x="517" y="437" type="curve"/>
      <point x="553" y="477" type="line"/>
      <point x="517" y="514"/>
      <point x="466" y="535"/>
      <point x="413" y="535" type="curve" smooth="yes"/>
      <point x="311" y="535"/>
      <point x="232" y="453"/>
      <point x="232" y="350" type="curve" smooth="yes"/>
      <point x="232" y="247"/>
      <point x="311" y="166"/>
    </contour>
    <contour>
      <point x="402" y="-11" type="curve" smooth="yes"/>
      <point x="604" y="-11"/>
      <point x="760" y="146"/>
      <point x="760" y="350" type="curve" smooth="yes"/>
      <point x="760" y="554"/>
      <point x="604" y="711"/>
      <point x="402" y="711" type="curve" smooth="yes"/>
      <point x="200" y="711"/>
      <point x="44" y="553"/>
      <point x="44" y="350" type="curve" smooth="yes"/>
      <point x="44" y="147"/>
      <point x="200" y="-11"/>
    </contour>
    <contour>
      <point x="402" y="32" type="curve" smooth="yes"/>
      <point x="229" y="32"/>
      <point x="92" y="173"/>
      <point x="92" y="350" type="curve" smooth="yes"/>
      <point x="92" y="527"/>
      <point x="229" y="668"/>
      <point x="402" y="668" type="curve" smooth="yes"/>
      <point x="576" y="668"/>
      <point x="714" y="527"/>
      <point x="714" y="350" type="curve" smooth="yes"/>
      <point x="714" y="173"/>
      <point x="576" y="32"/>
    </contour>
  </outline>
</glyph>
<glyph name="ordfeminine" format="2">
  <advance width="408"/>
  <unicode hex="00AA"/>
  <outline>
    <contour>
      <point x="173" y="319" type="curve" smooth="yes"/>
      <point x="220" y="319"/>
      <point x="259" y="333"/>
      <point x="293" y="361" type="curve"/>
      <point x="293" y="326" type="line"/>
      <point x="354" y="326" type="line"/>
      <point x="354" y="578" type="line" smooth="yes"/>
      <point x="354" y="663"/>
      <point x="300" y="711"/>
      <point x="203" y="711" type="curve" smooth="yes"/>
      <point x="156" y="711"/>
      <point x="110" y="699"/>
      <point x="55" y="673" type="curve"/>
      <point x="78" y="626" type="line"/>
      <point x="124" y="648"/>
      <point x="160" y="658"/>
      <point x="196" y="658" type="curve" smooth="yes"/>
      <point x="261" y="658"/>
      <point x="293" y="628"/>
      <point x="293" y="571" type="curve" smooth="yes"/>
      <point x="293" y="525" type="line"/>
      <point x="261" y="540"/>
      <point x="224" y="548"/>
      <point x="186" y="548" type="curve" smooth="yes"/>
      <point x="92" y="548"/>
      <point x="33" y="504"/>
      <point x="33" y="433" type="curve" smooth="yes"/>
      <point x="33" y="365"/>
      <point x="90" y="319"/>
    </contour>
    <contour>
      <point x="185" y="367" type="curve"/>
      <point x="130" y="367"/>
      <point x="93" y="394"/>
      <point x="93" y="435" type="curve" smooth="yes"/>
      <point x="93" y="477"/>
      <point x="130" y="504"/>
      <point x="188" y="504" type="curve" smooth="yes"/>
      <point x="230" y="504"/>
      <point x="263" y="496"/>
      <point x="293" y="477" type="curve"/>
      <point x="293" y="406" type="line"/>
      <point x="264" y="380"/>
      <point x="228" y="367"/>
    </contour>
  </outline>
</glyph>
<glyph name="uni00AC" format="2">
  <advance width="583"/>
  <unicode hex="00AC"/>
  <outline>
    <contour>
      <point x="462" y="0" type="line"/>
      <point x="524" y="0" type="line"/>
      <point x="524" y="314" type="line"/>
      <point x="67" y="314" type="line"/>
      <point x="67" y="254" type="line"/>
      <point x="462" y="254" type="line"/>
    </contour>
  </outline>
</glyph>
<glyph name="macron" format="2">
  <advance width="600"/>
  <unicode hex="00AF"/>
  <outline>
    <contour>
      <point x="158" y="621" type="line"/>
      <point x="442" y="621" type="line"/>
      <point x="442" y="674" type="line"/>
      <point x="158" y="674" type="line"/>
    </contour>
  </outline>
</glyph>
<glyph name="degree" format="2">
  <advance width="404"/>
  <unicode hex="00B0"/>
  <outline>
    <contour>
      <point x="202" y="423" type="curve" smooth="yes"/>
      <point x="281" y="423"/>
      <point x="345" y="488"/>
      <point x="345" y="567" type="curve" smooth="yes"/>
      <point x="345" y="646"/>
      <point x="281" y="711"/>
      <point x="202" y="711" type="curve" smooth="yes"/>
      <point x="123" y="711"/>
      <point x="59" y="646"/>
      <point x="59" y="567" type="curve" smooth="yes"/>
      <point x="59" y="488"/>
      <point x="123" y="423"/>
    </contour>
    <contour>
      <point x="202" y="472" type="curve" smooth="yes"/>
      <point x="151" y="472"/>
      <point x="109" y="515"/>
      <point x="109" y="567" type="curve" smooth="yes"/>
      <point x="109" y="619"/>
      <point x="151" y="662"/>
      <point x="202" y="662" type="curve" smooth="yes"/>
      <point x="253" y="662"/>
      <point x="295" y="619"/>
      <point x="295" y="567" type="curve" smooth="yes"/>
      <point x="295" y="515"/>
      <point x="253" y="472"/>
    </contour>
  </outline>
</glyph>
<glyph name="twosuperior" format="2">
  <advance width="291"/>
  <unicode hex="00B2"/>
  <outline>
    <contour>
      <point x="26" y="350" type="line"/>
      <point x="270" y="350" type="line"/>
      <point x="270" y="394" type="line"/>
      <point x="98" y="394" type="line"/>
      <point x="195" y="483" type="line" smooth="yes"/>
      <point x="248" y="532"/>
      <point x="265" y="560"/>
      <point x="265" y="602" type="curve" smooth="yes"/>
      <point x="265" y="662"/>
      <point x="214" y="705"/>
      <point x="143" y="705" type="curve" smooth="yes"/>
      <point x="98" y="705"/>
      <point x="56" y="687"/>
      <point x="17" y="652" type="curve"/>
      <point x="46" y="617" type="line"/>
      <point x="82" y="648"/>
      <point x="108" y="660"/>
      <point x="142" y="660" type="curve" smooth="yes"/>
      <point x="184" y="660"/>
      <point x="214" y="634"/>
      <point x="214" y="598" type="curve" smooth="yes"/>
      <point x="214" y="571"/>
      <point x="200" y="550"/>
      <point x="162" y="513" type="curve" smooth="yes"/>
      <point x="26" y="388" type="line"/>
    </contour>
  </outline>
</glyph>
<glyph name="threesuperior" format="2">
  <advance width="313"/>
  <unicode hex="00B3"/>
  <outline>
    <contour>
      <point x="151" y="345" type="curve" smooth="yes"/>
      <point x="229" y="345"/>
      <point x="285" y="387"/>
      <point x="285" y="446" type="curve" smooth="yes"/>
      <point x="285" y="485"/>
      <point x="257" y="515"/>
      <point x="215" y="528" type="curve"/>
      <point x="251" y="544"/>
      <point x="273" y="574"/>
      <point x="272" y="609" type="curve" smooth="yes"/>
      <point x="273" y="665"/>
      <point x="221" y="706"/>
      <point x="151" y="706" type="curve" smooth="yes"/>
      <point x="101" y="706"/>
      <point x="56" y="686"/>
      <point x="22" y="651" type="curve"/>
      <point x="57" y="618" type="line"/>
      <point x="87" y="648"/>
      <point x="112" y="660"/>
      <point x="149" y="660" type="curve" smooth="yes"/>
      <point x="190" y="660"/>
      <point x="220" y="637"/>
      <point x="220" y="605" type="curve" smooth="yes"/>
      <point x="220" y="571"/>
      <point x="190" y="545"/>
      <point x="150" y="545" type="curve" smooth="yes"/>
      <point x="123" y="545" type="line"/>
      <point x="123" y="503" type="line"/>
      <point x="154" y="503" type="line" smooth="yes"/>
      <point x="201" y="503"/>
      <point x="232" y="482"/>
      <point x="232" y="450" type="curve" smooth="yes"/>
      <point x="232" y="414"/>
      <point x="200" y="390"/>
      <point x="151" y="390" type="curve" smooth="yes"/>
      <point x="110" y="390"/>
      <point x="82" y="401"/>
      <point x="53" y="430" type="curve"/>
      <point x="18" y="397" type="line"/>
      <point x="51" y="364"/>
      <point x="99" y="345"/>
    </contour>
  </outline>
</glyph>
<glyph name="uni00B5" format="2">
  <advance width="551"/>
  <unicode hex="00B5"/>
  <outline>
    <contour>
      <point x="63" y="-204" type="line"/>
      <point x="136" y="-204" type="line"/>
      <point x="136" y="27" type="line"/>
      <point x="168" y="3"/>
      <point x="210" y="-10"/>
      <point x="257" y="-10" type="curve" smooth="yes"/>
      <point x="322" y="-10"/>
      <point x="375" y="13"/>
      <point x="414" y="58" type="curve"/>
      <point x="414" y="0" type="line"/>
      <point x="488" y="0" type="line"/>
      <point x="488" y="501" type="line"/>
      <point x="414" y="501" type="line"/>
      <point x="414" y="133" type="line"/>
      <point x="384" y="83"/>
      <point x="336" y="55"/>
      <point x="276" y="55" type="curve" smooth="yes"/>
      <point x="190" y="55"/>
      <point x="136" y="110"/>
      <point x="136" y="199" type="curve"/>
      <point x="136" y="501" type="line"/>
      <point x="63" y="501" type="line"/>
    </contour>
  </outline>
</glyph>
<glyph name="paragraph" format="2">
  <advance width="651"/>
  <unicode hex="00B6"/>
  <outline>
    <contour>
      <point x="318" y="0" type="line"/>
      <point x="386" y="0" type="line"/>
      <point x="386" y="289" type="line"/>
      <point x="505" y="289" type="line"/>
      <point x="505" y="0" type="line"/>
      <point x="574" y="0" type="line"/>
      <point x="574" y="700" type="line"/>
      <point x="258" y="700" type="line" smooth="yes"/>
      <point x="128" y="700"/>
      <point x="38" y="617"/>
      <point x="38" y="494" type="curve" smooth="yes"/>
      <point x="38" y="373"/>
      <point x="128" y="289"/>
      <point x="259" y="289" type="curve" smooth="yes"/>
      <point x="318" y="289" type="line"/>
    </contour>
    <contour>
      <point x="386" y="352" type="line"/>
      <point x="386" y="637" type="line"/>
      <point x="505" y="637" type="line"/>
      <point x="505" y="352" type="line"/>
    </contour>
    <contour>
      <point x="259" y="352" type="line" smooth="yes"/>
      <point x="169" y="352"/>
      <point x="109" y="408"/>
      <point x="109" y="495" type="curve" smooth="yes"/>
      <point x="109" y="580"/>
      <point x="169" y="637"/>
      <point x="259" y="637" type="curve" smooth="yes"/>
      <point x="318" y="637" type="line"/>
      <point x="318" y="352" type="line"/>
    </contour>
  </outline>
</glyph>
<glyph name="periodcentered" format="2">
  <advance width="250"/>
  <unicode hex="00B7"/>
  <outline>
    <contour>
      <point x="125" y="231" type="curve" smooth="yes"/>
      <point x="153" y="231"/>
      <point x="176" y="254"/>
      <point x="176" y="282" type="curve" smooth="yes"/>
      <point x="176" y="310"/>
      <point x="153" y="333"/>
      <point x="125" y="333" type="curve" smooth="yes"/>
      <point x="97" y="333"/>
      <point x="74" y="310"/>
      <point x="74" y="282" type="curve" smooth="yes"/>
      <point x="74" y="254"/>
      <point x="97" y="231"/>
    </contour>
  </outline>
</glyph>
<glyph name="cedilla" format="2">
  <advance width="600"/>
  <unicode hex="00B8"/>
  <outline>
    <contour>
      <point x="280" y="-228" type="curve" smooth="yes"/>
      <point x="347" y="-228"/>
      <point x="395" y="-190"/>
      <point x="395" y="-137" type="curve" smooth="yes"/>
      <point x="395" y="-89"/>
      <point x="358" y="-58"/>
      <point x="300" y="-55" type="curve"/>
      <point x="315" y="0" type="line"/>
      <point x="272" y="0" type="line"/>
      <point x="246" y="-91" type="line"/>
      <point x="275" y="-91" type="line" smooth="yes"/>
      <point x="318" y="-91"/>
      <point x="344" y="-109"/>
      <point x="344" y="-138" type="curve" smooth="yes"/>
      <point x="344" y="-167"/>
      <point x="320" y="-187"/>
      <point x="280" y="-187" type="curve" smooth="yes"/>
      <point x="250" y="-187"/>
      <point x="222" y="-176"/>
      <point x="197" y="-155" type="curve"/>
      <point x="167" y="-187" type="line"/>
      <point x="196" y="-214"/>
      <point x="236" y="-228"/>
    </contour>
  </outline>
</glyph>
<glyph name="onesuperior" format="2">
  <advance width="165"/>
  <unicode hex="00B9"/>
  <outline>
    <contour>
      <point x="83" y="350" type="line"/>
      <point x="135" y="350" type="line"/>
      <point x="135" y="700" type="line"/>
      <point x="102" y="700" type="line"/>
      <point x="20" y="665" type="line"/>
      <point x="20" y="620" type="line"/>
      <point x="83" y="646" type="line"/>
    </contour>
  </outline>
</glyph>
<glyph name="ordmasculine" format="2">
  <advance width="464"/>
  <unicode hex="00BA"/>
  <outline>
    <contour>
      <point x="232" y="317" type="curve" smooth="yes"/>
      <point x="340" y="317"/>
      <point x="426" y="404"/>
      <point x="426" y="514" type="curve" smooth="yes"/>
      <point x="426" y="624"/>
      <point x="340" y="711"/>
      <point x="232" y="711" type="curve" smooth="yes"/>
      <point x="124" y="711"/>
      <point x="38" y="624"/>
      <point x="38" y="514" type="curve" smooth="yes"/>
      <point x="38" y="404"/>
      <point x="124" y="317"/>
    </contour>
    <contour>
      <point x="232" y="372" type="curve" smooth="yes"/>
      <point x="158" y="372"/>
      <point x="100" y="434"/>
      <point x="100" y="514" type="curve" smooth="yes"/>
      <point x="100" y="594"/>
      <point x="158" y="656"/>
      <point x="232" y="656" type="curve" smooth="yes"/>
      <point x="306" y="656"/>
      <point x="364" y="594"/>
      <point x="364" y="514" type="curve" smooth="yes"/>
      <point x="364" y="434"/>
      <point x="306" y="372"/>
    </contour>
  </outline>
</glyph>
<glyph name="AE" format="2">
  <advance width="953"/>
  <unicode hex="00C6"/>
  <outline>
    <contour>
      <point x="4" y="0" type="line"/>
      <point x="84" y="0" type="line"/>
      <point x="173" y="220" type="line"/>
      <point x="503" y="220" type="line"/>
      <point x="591" y="0" type="line"/>
      <point x="919" y="0" type="line"/>
      <point x="919" y="68" type="line"/>
      <point x="645" y="68" type="line"/>
      <point x="544" y="320" type="line"/>
      <point x="778" y="320" type="line"/>
      <point x="778" y="387" type="line"/>
      <point x="517" y="387" type="line"/>
      <point x="418" y="632" type="line"/>
      <point x="919" y="632" type="line"/>
      <point x="919" y="700" type="line"/>
      <point x="295" y="700" type="line"/>
    </contour>
    <contour>
      <point x="200" y="286" type="line"/>
      <point x="339" y="628" type="line"/>
      <point x="476" y="286" type="line"/>
    </contour>
  </outline>
</glyph>
<glyph name="Ccedilla" format="2">
  <advance width="722"/>
  <unicode hex="00C7"/>
  <outline>
    <contour>
      <point x="393" y="-228" type="curve" smooth="yes"/>
      <point x="460" y="-228"/>
      <point x="508" y="-190"/>
      <point x="508" y="-137" type="curve" smooth="yes"/>
      <point x="508" y="-89"/>
      <point x="471" y="-58"/>
      <point x="413" y="-55" type="curve"/>
      <point x="425" y="-11" type="line"/>
      <point x="524" y="-6"/>
      <point x="616" y="35"/>
      <point x="682" y="104" type="curve"/>
      <point x="632" y="156" type="line"/>
      <point x="579" y="96"/>
      <point x="496" y="60"/>
      <point x="409" y="60" type="curve" smooth="yes"/>
      <point x="246" y="60"/>
      <point x="122" y="186"/>
      <point x="122" y="350" type="curve" smooth="yes"/>
      <point x="122" y="514"/>
      <point x="245" y="640"/>
      <point x="407" y="640" type="curve" smooth="yes"/>
      <point x="493" y="640"/>
      <point x="578" y="604"/>
      <point x="633" y="542" type="curve"/>
      <point x="684" y="596" type="line"/>
      <point x="616" y="669"/>
      <point x="516" y="711"/>
      <point x="407" y="711" type="curve" smooth="yes"/>
      <point x="203" y="711"/>
      <point x="44" y="552"/>
      <point x="44" y="350" type="curve" smooth="yes"/>
      <point x="44" y="156"/>
      <point x="190" y="2"/>
      <point x="382" y="-10" type="curve"/>
      <point x="359" y="-91" type="line"/>
      <point x="388" y="-91" type="line" smooth="yes"/>
      <point x="431" y="-91"/>
      <point x="457" y="-109"/>
      <point x="457" y="-138" type="curve" smooth="yes"/>
      <point x="457" y="-167"/>
      <point x="433" y="-187"/>
      <point x="393" y="-187" type="curve" smooth="yes"/>
      <point x="363" y="-187"/>
      <point x="335" y="-176"/>
      <point x="310" y="-155" type="curve"/>
      <point x="280" y="-187" type="line"/>
      <point x="309" y="-214"/>
      <point x="349" y="-228"/>
    </contour>
  </outline>
</glyph>
<glyph name="Oslash" format="2">
  <advance width="809"/>
  <unicode hex="00D8"/>
  <outline>
    <contour>
      <point x="405" y="-11" type="curve" smooth="yes"/>
      <point x="606" y="-11"/>
      <point x="765" y="148"/>
      <point x="765" y="350" type="curve" smooth="yes"/>
      <point x="765" y="453"/>
      <point x="724" y="544"/>
      <point x="657" y="610" type="curve"/>
      <point x="732" y="700" type="line"/>
      <point x="651" y="700" type="line"/>
      <point x="609" y="649" type="line"/>
      <point x="551" y="688"/>
      <point x="481" y="711"/>
      <point x="405" y="711" type="curve" smooth="yes"/>
      <point x="203" y="711"/>
      <point x="44" y="552"/>
      <point x="44" y="350" type="curve" smooth="yes"/>
      <point x="44" y="249"/>
      <point x="84" y="158"/>
      <point x="149" y="93" type="curve"/>
      <point x="72" y="0" type="line"/>
      <point x="151" y="0" type="line"/>
      <point x="196" y="54" type="line"/>
      <point x="255" y="13"/>
      <point x="327" y="-11"/>
    </contour>
    <contour>
      <point x="197" y="151" type="line"/>
      <point x="150" y="202"/>
      <point x="122" y="272"/>
      <point x="122" y="350" type="curve" smooth="yes"/>
      <point x="122" y="514"/>
      <point x="245" y="640"/>
      <point x="405" y="640" type="curve" smooth="yes"/>
      <point x="464" y="640"/>
      <point x="518" y="623"/>
      <point x="562" y="593" type="curve"/>
    </contour>
    <contour>
      <point x="405" y="60" type="curve" smooth="yes"/>
      <point x="344" y="60"/>
      <point x="288" y="79"/>
      <point x="243" y="110" type="curve"/>
      <point x="610" y="552" type="line"/>
      <point x="658" y="501"/>
      <point x="687" y="430"/>
      <point x="687" y="350" type="curve" smooth="yes"/>
      <point x="687" y="187"/>
      <point x="564" y="60"/>
    </contour>
  </outline>
</glyph>
<glyph name="Thorn" format="2">
  <advance width="637"/>
  <unicode hex="00DE"/>
  <outline>
    <contour>
      <point x="77" y="0" type="line"/>
      <point x="154" y="0" type="line"/>
      <point x="154" y="142" type="line"/>
      <point x="383" y="142" type="line" smooth="yes"/>
      <point x="506" y="142"/>
      <point x="598" y="231"/>
      <point x="598" y="349" type="curve" smooth="yes"/>
      <point x="598" y="470"/>
      <point x="506" y="559"/>
      <point x="383" y="559" type="curve" smooth="yes"/>
      <point x="154" y="559" type="line"/>
      <point x="154" y="700" type="line"/>
      <point x="77" y="700" type="line"/>
    </contour>
    <contour>
      <point x="154" y="209" type="line"/>
      <point x="154" y="490" type="line"/>
      <point x="375" y="490" type="line" smooth="yes"/>
      <point x="457" y="491"/>
      <point x="520" y="430"/>
      <point x="520" y="349" type="curve" smooth="yes"/>
      <point x="520" y="269"/>
      <point x="457" y="209"/>
      <point x="375" y="209" type="curve" smooth="yes"/>
    </contour>
  </outline>
</glyph>
<glyph name="germandbls" format="2">
  <advance width="628"/>
  <unicode hex="00DF"/>
  <outline>
    <contour>
      <point x="424" y="-11" type="curve" smooth="yes"/>
      <point x="533" y="-11"/>
      <point x="606" y="46"/>
      <point x="606" y="131" type="curve" smooth="yes"/>
      <point x="606" y="199"/>
      <point x="570" y="239"/>
      <point x="482" y="269" type="curve" smooth="yes"/>
      <point x="405" y="295" type="line" smooth="yes"/>
      <point x="351" y="313"/>
      <point x="337" y="326"/>
      <point x="337" y="352" type="curve" smooth="yes"/>
      <point x="337" y="422"/>
      <point x="531" y="420"/>
      <point x="531" y="557" type="curve" smooth="yes"/>
      <point x="531" y="650"/>
      <point x="442" y="711"/>
      <point x="305" y="711" type="curve" smooth="yes"/>
      <point x="153" y="711"/>
      <point x="63" y="623"/>
      <point x="63" y="472" type="curve" smooth="yes"/>
      <point x="63" y="0" type="line"/>
      <point x="136" y="0" type="line"/>
      <point x="136" y="474" type="line" smooth="yes"/>
      <point x="136" y="587"/>
      <point x="196" y="649"/>
      <point x="307" y="649" type="curve" smooth="yes"/>
      <point x="396" y="649"/>
      <point x="459" y="609"/>
      <point x="459" y="551" type="curve" smooth="yes"/>
      <point x="459" y="450"/>
      <point x="265" y="459"/>
      <point x="265" y="343" type="curve" smooth="yes"/>
      <point x="265" y="294"/>
      <point x="294" y="265"/>
      <point x="374" y="239" type="curve" smooth="yes"/>
      <point x="454" y="213" type="line" smooth="yes"/>
      <point x="515" y="193"/>
      <point x="537" y="169"/>
      <point x="537" y="124" type="curve" smooth="yes"/>
      <point x="537" y="77"/>
      <point x="492" y="46"/>
      <point x="423" y="46" type="curve" smooth="yes"/>
      <point x="366" y="46"/>
      <point x="318" y="67"/>
      <point x="273" y="113" type="curve"/>
      <point x="228" y="70" type="line"/>
      <point x="283" y="16"/>
      <point x="347" y="-11"/>
    </contour>
  </outline>
</glyph>
<glyph name="ae" format="2">
  <advance width="907"/>
  <unicode hex="00E6"/>
  <outline>
    <contour>
      <point x="221" y="-9" type="curve" smooth="yes"/>
      <point x="307" y="-9"/>
      <point x="380" y="26"/>
      <point x="435" y="92" type="curve"/>
      <point x="481" y="30"/>
      <point x="556" y="-9"/>
      <point x="641" y="-9" type="curve" smooth="yes"/>
      <point x="713" y="-9"/>
      <point x="772" y="11"/>
      <point x="828" y="53" type="curve"/>
      <point x="782" y="102" type="line"/>
      <point x="748" y="73"/>
      <point x="696" y="56"/>
      <point x="644" y="56" type="curve" smooth="yes"/>
      <point x="545" y="56"/>
      <point x="467" y="129"/>
      <point x="456" y="228" type="curve"/>
      <point x="867" y="228" type="line"/>
      <point x="867" y="251" type="line"/>
      <point x="867" y="395"/>
      <point x="763" y="509"/>
      <point x="630" y="509" type="curve" smooth="yes"/>
      <point x="552" y="509"/>
      <point x="484" y="473"/>
      <point x="440" y="413" type="curve"/>
      <point x="414" y="477"/>
      <point x="351" y="511"/>
      <point x="257" y="511" type="curve" smooth="yes"/>
      <point x="196" y="511"/>
      <point x="137" y="496"/>
      <point x="65" y="461" type="curve"/>
      <point x="93" y="404" type="line"/>
      <point x="153" y="435"/>
      <point x="201" y="448"/>
      <point x="250" y="448" type="curve" smooth="yes"/>
      <point x="337" y="448"/>
      <point x="383" y="407"/>
      <point x="383" y="327" type="curve" smooth="yes"/>
      <point x="383" y="263" type="line"/>
      <point x="341" y="284"/>
      <point x="291" y="295"/>
      <point x="239" y="295" type="curve" smooth="yes"/>
      <point x="116" y="295"/>
      <point x="37" y="235"/>
      <point x="37" y="142" type="curve" smooth="yes"/>
      <point x="37" y="52"/>
      <point x="111" y="-9"/>
    </contour>
    <contour>
      <point x="458" y="287" type="line"/>
      <point x="472" y="379"/>
      <point x="541" y="444"/>
      <point x="628" y="444" type="curve" smooth="yes"/>
      <point x="711" y="444"/>
      <point x="780" y="376"/>
      <point x="793" y="287" type="curve"/>
    </contour>
    <contour>
      <point x="234" y="49" type="curve" smooth="yes"/>
      <point x="160" y="49"/>
      <point x="108" y="88"/>
      <point x="108" y="144" type="curve" smooth="yes"/>
      <point x="108" y="202"/>
      <point x="161" y="241"/>
      <point x="241" y="241" type="curve" smooth="yes"/>
      <point x="299" y="241"/>
      <point x="346" y="229"/>
      <point x="387" y="201" type="curve"/>
      <point x="392" y="178"/>
      <point x="399" y="157"/>
      <point x="408" y="137" type="curve"/>
      <point x="360" y="78"/>
      <point x="303" y="49"/>
    </contour>
  </outline>
</glyph>
<glyph name="ccedilla" format="2">
  <advance width="513"/>
  <unicode hex="00E7"/>
  <outline>
    <contour>
      <point x="282" y="-228" type="curve" smooth="yes"/>
      <point x="349" y="-228"/>
      <point x="397" y="-190"/>
      <point x="397" y="-137" type="curve" smooth="yes"/>
      <point x="397" y="-89"/>
      <point x="360" y="-58"/>
      <point x="302" y="-55" type="curve"/>
      <point x="315" y="-8" type="line"/>
      <point x="380" y="-3"/>
      <point x="441" y="25"/>
      <point x="489" y="71" type="curve"/>
      <point x="443" y="121" type="line"/>
      <point x="400" y="79"/>
      <point x="351" y="58"/>
      <point x="297" y="58" type="curve" smooth="yes"/>
      <point x="194" y="58"/>
      <point x="113" y="142"/>
      <point x="113" y="251" type="curve" smooth="yes"/>
      <point x="113" y="358"/>
      <point x="193" y="443"/>
      <point x="296" y="443" type="curve" smooth="yes"/>
      <point x="350" y="443"/>
      <point x="404" y="420"/>
      <point x="444" y="378" type="curve"/>
      <point x="491" y="432" type="line"/>
      <point x="439" y="482"/>
      <point x="368" y="511"/>
      <point x="295" y="511" type="curve" smooth="yes"/>
      <point x="152" y="511"/>
      <point x="40" y="396"/>
      <point x="40" y="251" type="curve" smooth="yes"/>
      <point x="40" y="113"/>
      <point x="140" y="4"/>
      <point x="272" y="-8" type="curve"/>
      <point x="248" y="-91" type="line"/>
      <point x="277" y="-91" type="line" smooth="yes"/>
      <point x="320" y="-91"/>
      <point x="346" y="-109"/>
      <point x="346" y="-138" type="curve" smooth="yes"/>
      <point x="346" y="-167"/>
      <point x="322" y="-187"/>
      <point x="282" y="-187" type="curve" smooth="yes"/>
      <point x="252" y="-187"/>
      <point x="224" y="-176"/>
      <point x="199" y="-155" type="curve"/>
      <point x="169" y="-187" type="line"/>
      <point x="198" y="-214"/>
      <point x="238" y="-228"/>
    </contour>
  </outline>
</glyph>
<glyph name="eth" format="2">
  <advance width="601"/>
  <unicode hex="00F0"/>
  <outline>
    <contour>
      <point x="290" y="-10" type="curve" smooth="yes"/>
      <point x="446" y="-10"/>
      <point x="548" y="110"/>
      <point x="548" y="292" type="curve" smooth="yes"/>
      <point x="548" y="433"/>
      <point x="504" y="547"/>
      <point x="422" y="627" type="curve"/>
      <point x="519" y="687" type="line"/>
      <point x="488" y="733" type="line"/>
      <point x="378" y="664" type="line"/>
      <point x="339" y="693"/>
      <point x="293" y="715"/>
      <point x="242" y="731" type="curve"/>
      <point x="212" y="677" type="line"/>
      <point x="252" y="666"/>
      <point x="288" y="650"/>
      <point x="319" y="628" type="curve"/>
      <point x="232" y="574" type="line"/>
      <point x="263" y="528" type="line"/>
      <point x="365" y="592" type="line"/>
      <point x="421" y="538"/>
      <point x="458" y="467"/>
      <point x="472" y="384" type="curve"/>
      <point x="434" y="449"/>
      <point x="367" y="490"/>
      <point x="285" y="490" type="curve" smooth="yes"/>
      <point x="148" y="490"/>
      <point x="41" y="383"/>
      <point x="41" y="246" type="curve" smooth="yes"/>
      <point x="41" y="102"/>
      <point x="150" y="-10"/>
    </contour>
    <contour>
      <point x="292" y="57" type="curve" smooth="yes"/>
      <point x="191" y="57"/>
      <point x="113" y="137"/>
      <point x="113" y="242" type="curve" smooth="yes"/>
      <point x="113" y="346"/>
      <point x="191" y="426"/>
      <point x="292" y="426" type="curve" smooth="yes"/>
      <point x="392" y="426"/>
      <point x="470" y="346"/>
      <point x="470" y="242" type="curve" smooth="yes"/>
      <point x="470" y="137"/>
      <point x="392" y="57"/>
    </contour>
  </outline>
</glyph>
<glyph name="oslash" format="2">
  <advance width="592"/>
  <unicode hex="00F8"/>
  <outline>
    <contour>
      <point x="296" y="-10" type="curve" smooth="yes"/>
      <point x="438" y="-10"/>
      <point x="551" y="104"/>
      <point x="551" y="251" type="curve" smooth="yes"/>
      <point x="551" y="322"/>
      <point x="524" y="386"/>
      <point x="480" y="433" type="curve"/>
      <point x="537" y="501" type="line"/>
      <point x="471" y="501" type="line"/>
      <point x="441" y="466" type="line"/>
      <point x="400" y="494"/>
      <point x="350" y="511"/>
      <point x="296" y="511" type="curve" smooth="yes"/>
      <point x="153" y="511"/>
      <point x="40" y="397"/>
      <point x="40" y="251" type="curve" smooth="yes"/>
      <point x="40" y="179"/>
      <point x="67" y="116"/>
      <point x="111" y="69" type="curve"/>
      <point x="53" y="0" type="line"/>
      <point x="119" y="0" type="line"/>
      <point x="149" y="36" type="line"/>
      <point x="190" y="7"/>
      <point x="241" y="-10"/>
    </contour>
    <contour>
      <point x="156" y="124" type="line"/>
      <point x="129" y="158"/>
      <point x="113" y="202"/>
      <point x="113" y="251" type="curve" smooth="yes"/>
      <point x="113" y="360"/>
      <point x="194" y="445"/>
      <point x="296" y="445" type="curve" smooth="yes"/>
      <point x="334" y="445"/>
      <point x="369" y="433"/>
      <point x="398" y="413" type="curve"/>
    </contour>
    <contour>
      <point x="296" y="56" type="curve" smooth="yes"/>
      <point x="257" y="56"/>
      <point x="222" y="68"/>
      <point x="193" y="89" type="curve"/>
      <point x="435" y="378" type="line"/>
      <point x="462" y="344"/>
      <point x="478" y="300"/>
      <point x="478" y="251" type="curve" smooth="yes"/>
      <point x="478" y="142"/>
      <point x="398" y="56"/>
    </contour>
  </outline>
</glyph>
<glyph name="thorn" format="2">
  <advance width="591"/>
  <unicode hex="00FE"/>
  <outline>
    <contour>
      <point x="63" y="-204" type="line"/>
      <point x="137" y="-204" type="line"/>
      <point x="137" y="50" type="line"/>
      <point x="182" y="13"/>
      <point x="238" y="-8"/>
      <point x="297" y="-8" type="curve" smooth="yes"/>
      <point x="440" y="-8"/>
      <point x="550" y="105"/>
      <point x="550" y="251" type="curve" smooth="yes"/>
      <point x="550" y="396"/>
      <point x="440" y="509"/>
      <point x="298" y="509" type="curve" smooth="yes"/>
      <point x="235" y="509"/>
      <point x="179" y="488"/>
      <point x="137" y="448" type="curve"/>
      <point x="137" y="717" type="line"/>
      <point x="63" y="700" type="line"/>
    </contour>
    <contour>
      <point x="291" y="444" type="curve" smooth="yes"/>
      <point x="396" y="444"/>
      <point x="477" y="360"/>
      <point x="477" y="250" type="curve" smooth="yes"/>
      <point x="477" y="140"/>
      <point x="397" y="57"/>
      <point x="291" y="57" type="curve" smooth="yes"/>
      <point x="229" y="57"/>
      <point x="172" y="83"/>
      <point x="137" y="126" type="curve"/>
      <point x="137" y="374" type="line"/>
      <point x="172" y="418"/>
      <point x="228" y="444"/>
    </contour>
  </outline>
</glyph>
<glyph name="Aogonek" format="2">
  <advance width="679"/>
  <unicode hex="0104"/>
  <outline>
    <contour>
      <point x="617" y="-221" type="curve" smooth="yes"/>
      <point x="645" y="-221"/>
      <point x="669" y="-214"/>
      <point x="691" y="-200" type="curve"/>
      <point x="676" y="-161" type="line"/>
      <point x="662" y="-171"/>
      <point x="645" y="-175"/>
      <point x="628" y="-175" type="curve" smooth="yes"/>
      <point x="591" y="-175"/>
      <point x="570" y="-156"/>
      <point x="570" y="-123" type="curve" smooth="yes"/>
      <point x="570" y="-84"/>
      <point x="603" y="-46"/>
      <point x="676" y="0" type="curve"/>
      <point x="388" y="700" type="line"/>
      <point x="295" y="700" type="line"/>
      <point x="4" y="0" type="line"/>
      <point x="84" y="0" type="line"/>
      <point x="173" y="220" type="line"/>
      <point x="503" y="220" type="line"/>
      <point x="591" y="0" type="line"/>
      <point x="618" y="0" type="line"/>
      <point x="548" y="-48"/>
      <point x="519" y="-88"/>
      <point x="519" y="-135" type="curve" smooth="yes"/>
      <point x="519" y="-187"/>
      <point x="558" y="-221"/>
    </contour>
    <contour>
      <point x="200" y="286" type="line"/>
      <point x="339" y="628" type="line"/>
      <point x="476" y="286" type="line"/>
    </contour>
  </outline>
</glyph>
<glyph name="aogonek" format="2">
  <advance width="516"/>
  <unicode hex="0105"/>
  <outline>
    <contour>
      <point x="397" y="-221" type="curve" smooth="yes"/>
      <point x="425" y="-221"/>
      <point x="449" y="-214"/>
      <point x="471" y="-200" type="curve"/>
      <point x="456" y="-161" type="line"/>
      <point x="442" y="-171"/>
      <point x="425" y="-175"/>
      <point x="408" y="-175" type="curve" smooth="yes"/>
      <point x="371" y="-175"/>
      <point x="350" y="-156"/>
      <point x="350" y="-123" type="curve" smooth="yes"/>
      <point x="350" y="-84"/>
      <point x="382" y="-46"/>
      <point x="455" y="0" type="curve"/>
      <point x="455" y="337" type="line" smooth="yes"/>
      <point x="455" y="449"/>
      <point x="384" y="511"/>
      <point x="257" y="511" type="curve" smooth="yes"/>
      <point x="196" y="511"/>
      <point x="137" y="496"/>
      <point x="65" y="461" type="curve"/>
      <point x="93" y="404" type="line"/>
      <point x="153" y="435"/>
      <point x="201" y="448"/>
      <point x="250" y="448" type="curve" smooth="yes"/>
      <point x="337" y="448"/>
      <point x="383" y="407"/>
      <point x="383" y="327" type="curve" smooth="yes"/>
      <point x="383" y="261" type="line"/>
      <point x="340" y="283"/>
      <point x="289" y="295"/>
      <point x="236" y="295" type="curve" smooth="yes"/>
      <point x="113" y="295"/>
      <point x="36" y="236"/>
      <point x="36" y="142" type="curve" smooth="yes"/>
      <point x="36" y="52"/>
      <point x="111" y="-9"/>
      <point x="221" y="-9" type="curve" smooth="yes"/>
      <point x="284" y="-9"/>
      <point x="338" y="10"/>
      <point x="383" y="49" type="curve"/>
      <point x="383" y="0" type="line"/>
      <point x="398" y="0" type="line"/>
      <point x="328" y="-48"/>
      <point x="299" y="-88"/>
      <point x="299" y="-135" type="curve" smooth="yes"/>
      <point x="299" y="-187"/>
      <point x="338" y="-221"/>
    </contour>
    <contour>
      <point x="234" y="49" type="curve" smooth="yes"/>
      <point x="159" y="49"/>
      <point x="107" y="88"/>
      <point x="107" y="144" type="curve" smooth="yes"/>
      <point x="107" y="203"/>
      <point x="158" y="241"/>
      <point x="238" y="241" type="curve" smooth="yes"/>
      <point x="296" y="241"/>
      <point x="342" y="229"/>
      <point x="383" y="201" type="curve"/>
      <point x="383" y="107" type="line"/>
      <point x="343" y="67"/>
      <point x="294" y="49"/>
    </contour>
  </outline>
</glyph>
<glyph name="Dcroat" format="2">
  <advance width="744"/>
  <unicode hex="0110"/>
  <outline>
    <contour>
      <point x="100" y="0" type="line"/>
      <point x="331" y="0" type="line" smooth="yes"/>
      <point x="545" y="0"/>
      <point x="699" y="147"/>
      <point x="699" y="350" type="curve" smooth="yes"/>
      <point x="699" y="553"/>
      <point x="544" y="700"/>
      <point x="331" y="700" type="curve" smooth="yes"/>
      <point x="100" y="700" type="line"/>
      <point x="100" y="383" type="line"/>
      <point x="13" y="383" type="line"/>
      <point x="13" y="317" type="line"/>
      <point x="100" y="317" type="line"/>
    </contour>
    <contour>
      <point x="177" y="70" type="line"/>
      <point x="177" y="317" type="line"/>
      <point x="366" y="317" type="line"/>
      <point x="366" y="383" type="line"/>
      <point x="177" y="383" type="line"/>
      <point x="177" y="630" type="line"/>
      <point x="335" y="630" type="line" smooth="yes"/>
      <point x="497" y="630"/>
      <point x="621" y="509"/>
      <point x="621" y="350" type="curve" smooth="yes"/>
      <point x="621" y="191"/>
      <point x="497" y="70"/>
      <point x="335" y="70" type="curve" smooth="yes"/>
    </contour>
  </outline>
</glyph>
<glyph name="dcroat" format="2">
  <advance width="589"/>
  <unicode hex="0111"/>
  <outline>
    <contour>
      <point x="292" y="-8" type="curve" smooth="yes"/>
      <point x="355" y="-8"/>
      <point x="411" y="13"/>
      <point x="454" y="53" type="curve"/>
      <point x="454" y="0" type="line"/>
      <point x="527" y="0" type="line"/>
      <point x="527" y="586" type="line"/>
      <point x="589" y="586" type="line"/>
      <point x="589" y="644" type="line"/>
      <point x="527" y="644" type="line"/>
      <point x="527" y="717" type="line"/>
      <point x="453" y="700" type="line"/>
      <point x="453" y="644" type="line"/>
      <point x="289" y="644" type="line"/>
      <point x="289" y="586" type="line"/>
      <point x="453" y="586" type="line"/>
      <point x="453" y="452" type="line"/>
      <point x="408" y="489"/>
      <point x="351" y="509"/>
      <point x="293" y="509" type="curve" smooth="yes"/>
      <point x="150" y="509"/>
      <point x="40" y="396"/>
      <point x="40" y="251" type="curve" smooth="yes"/>
      <point x="40" y="105"/>
      <point x="151" y="-8"/>
    </contour>
    <contour>
      <point x="299" y="57" type="curve" smooth="yes"/>
      <point x="194" y="57"/>
      <point x="113" y="142"/>
      <point x="113" y="252" type="curve" smooth="yes"/>
      <point x="113" y="362"/>
      <point x="194" y="444"/>
      <point x="299" y="444" type="curve" smooth="yes"/>
      <point x="361" y="444"/>
      <point x="418" y="418"/>
      <point x="453" y="375" type="curve"/>
      <point x="453" y="127" type="line"/>
      <point x="418" y="83"/>
      <point x="362" y="57"/>
    </contour>
  </outline>
</glyph>
<glyph name="Eogonek" format="2">
  <advance width="616"/>
  <unicode hex="0118"/>
  <outline>
    <contour>
      <point x="597" y="-200" type="curve"/>
      <point x="582" y="-161" type="line"/>
      <point x="568" y="-171"/>
      <point x="551" y="-175"/>
      <point x="534" y="-175" type="curve" smooth="yes"/>
      <point x="497" y="-175"/>
      <point x="476" y="-156"/>
      <point x="476" y="-123" type="curve" smooth="yes"/>
      <point x="476" y="-84"/>
      <point x="509" y="-46"/>
      <point x="582" y="0" type="curve"/>
      <point x="582" y="68" type="line"/>
      <point x="154" y="68" type="line"/>
      <point x="154" y="320" type="line"/>
      <point x="431" y="320" type="line"/>
      <point x="431" y="387" type="line"/>
      <point x="154" y="387" type="line"/>
      <point x="154" y="632" type="line"/>
      <point x="578" y="632" type="line"/>
      <point x="578" y="700" type="line"/>
      <point x="77" y="700" type="line"/>
      <point x="77" y="0" type="line"/>
      <point x="524" y="0" type="line"/>
      <point x="454" y="-48"/>
      <point x="425" y="-88"/>
      <point x="425" y="-135" type="curve" smooth="yes"/>
      <point x="425" y="-187"/>
      <point x="464" y="-221"/>
      <point x="523" y="-221" type="curve" smooth="yes"/>
      <point x="551" y="-221"/>
      <point x="575" y="-214"/>
    </contour>
  </outline>
</glyph>
<glyph name="eogonek" format="2">
  <advance width="564"/>
  <unicode hex="0119"/>
  <outline>
    <contour>
      <point x="315" y="-221" type="curve" smooth="yes"/>
      <point x="343" y="-221"/>
      <point x="367" y="-214"/>
      <point x="389" y="-200" type="curve"/>
      <point x="374" y="-161" type="line"/>
      <point x="360" y="-171"/>
      <point x="343" y="-175"/>
      <point x="326" y="-175" type="curve" smooth="yes"/>
      <point x="289" y="-175"/>
      <point x="268" y="-156"/>
      <point x="268" y="-123" type="curve" smooth="yes"/>
      <point x="268" y="-84"/>
      <point x="301" y="-46"/>
      <point x="373" y="-1" type="curve"/>
      <point x="413" y="9"/>
      <point x="450" y="26"/>
      <point x="485" y="53" type="curve"/>
      <point x="439" y="102" type="line"/>
      <point x="405" y="73"/>
      <point x="353" y="56"/>
      <point x="301" y="56" type="curve" smooth="yes"/>
      <point x="202" y="56"/>
      <point x="124" y="129"/>
      <point x="113" y="228" type="curve"/>
      <point x="524" y="228" type="line"/>
      <point x="524" y="251" type="line" smooth="yes"/>
      <point x="524" y="395"/>
      <point x="420" y="509"/>
      <point x="287" y="509" type="curve" smooth="yes"/>
      <point x="149" y="509"/>
      <point x="40" y="395"/>
      <point x="40" y="251" type="curve" smooth="yes"/>
      <point x="40" y="104"/>
      <point x="153" y="-9"/>
      <point x="303" y="-9" type="curve"/>
      <point x="243" y="-53"/>
      <point x="217" y="-91"/>
      <point x="217" y="-135" type="curve" smooth="yes"/>
      <point x="217" y="-187"/>
      <point x="256" y="-221"/>
    </contour>
    <contour>
      <point x="115" y="287" type="line"/>
      <point x="129" y="379"/>
      <point x="198" y="444"/>
      <point x="285" y="444" type="curve" smooth="yes"/>
      <point x="368" y="444"/>
      <point x="437" y="376"/>
      <point x="450" y="287" type="curve"/>
    </contour>
  </outline>
</glyph>
<glyph name="hbar" format="2">
  <advance width="549"/>
  <unicode hex="0127"/>
  <outline>
    <contour>
      <point x="63" y="0" type="line"/>
      <point x="137" y="0" type="line"/>
      <point x="137" y="369" type="line"/>
      <point x="167" y="418"/>
      <point x="215" y="446"/>
      <point x="275" y="446" type="curve" smooth="yes"/>
      <point x="361" y="446"/>
      <point x="415" y="391"/>
      <point x="415" y="302" type="curve" smooth="yes"/>
      <point x="415" y="0" type="line"/>
      <point x="488" y="0" type="line"/>
      <point x="488" y="317" type="line" smooth="yes"/>
      <point x="488" y="432"/>
      <point x="409" y="511"/>
      <point x="295" y="511" type="curve" smooth="yes"/>
      <point x="230" y="511"/>
      <point x="176" y="488"/>
      <point x="137" y="442" type="curve"/>
      <point x="137" y="586" type="line"/>
      <point x="300" y="586" type="line"/>
      <point x="300" y="644" type="line"/>
      <point x="137" y="644" type="line"/>
      <point x="137" y="717" type="line"/>
      <point x="63" y="700" type="line"/>
      <point x="63" y="644" type="line"/>
      <point x="0" y="644" type="line"/>
      <point x="0" y="586" type="line"/>
      <point x="63" y="586" type="line"/>
    </contour>
  </outline>
</glyph>
<glyph name="Iogonek" format="2">
  <advance width="231"/>
  <unicode hex="012E"/>
  <outline>
    <contour>
      <point x="95" y="-221" type="curve" smooth="yes"/>
      <point x="123" y="-221"/>
      <point x="147" y="-214"/>
      <point x="169" y="-200" type="curve"/>
      <point x="154" y="-161" type="line"/>
      <point x="140" y="-171"/>
      <point x="123" y="-175"/>
      <point x="106" y="-175" type="curve" smooth="yes"/>
      <point x="69" y="-175"/>
      <point x="48" y="-156"/>
      <point x="48" y="-123" type="curve" smooth="yes"/>
      <point x="48" y="-84"/>
      <point x="81" y="-46"/>
      <point x="154" y="0" type="curve"/>
      <point x="154" y="700" type="line"/>
      <point x="77" y="700" type="line"/>
      <point x="77" y="0" type="line"/>
      <point x="96" y="0" type="line"/>
      <point x="26" y="-48"/>
      <point x="-3" y="-88"/>
      <point x="-3" y="-135" type="curve" smooth="yes"/>
      <point x="-3" y="-187"/>
      <point x="36" y="-221"/>
    </contour>
  </outline>
</glyph>
<glyph name="iogonek" format="2">
  <advance width="200"/>
  <unicode hex="012F"/>
  <outline>
    <contour>
      <point x="100" y="597" type="curve" smooth="yes"/>
      <point x="128" y="597"/>
      <point x="150" y="620"/>
      <point x="150" y="647" type="curve" smooth="yes"/>
      <point x="150" y="675"/>
      <point x="128" y="697"/>
      <point x="100" y="697" type="curve" smooth="yes"/>
      <point x="73" y="697"/>
      <point x="50" y="675"/>
      <point x="50" y="647" type="curve" smooth="yes"/>
      <point x="50" y="620"/>
      <point x="73" y="597"/>
    </contour>
    <contour>
      <point x="78" y="-221" type="curve" smooth="yes"/>
      <point x="106" y="-221"/>
      <point x="130" y="-214"/>
      <point x="152" y="-200" type="curve"/>
      <point x="137" y="-161" type="line"/>
      <point x="123" y="-171"/>
      <point x="106" y="-175"/>
      <point x="89" y="-175" type="curve" smooth="yes"/>
      <point x="52" y="-175"/>
      <point x="31" y="-156"/>
      <point x="31" y="-123" type="curve" smooth="yes"/>
      <point x="31" y="-84"/>
      <point x="64" y="-46"/>
      <point x="137" y="0" type="curve"/>
      <point x="137" y="501" type="line"/>
      <point x="63" y="501" type="line"/>
      <point x="63" y="0" type="line"/>
      <point x="79" y="0" type="line"/>
      <point x="9" y="-48"/>
      <point x="-20" y="-88"/>
      <point x="-20" y="-135" type="curve" smooth="yes"/>
      <point x="-20" y="-187"/>
      <point x="19" y="-221"/>
    </contour>
  </outline>
</glyph>
<glyph name="lslash" format="2">
  <advance width="240"/>
  <unicode hex="0142"/>
  <outline>
    <contour>
      <point x="84" y="0" type="line"/>
      <point x="158" y="0" type="line"/>
      <point x="158" y="374" type="line"/>
      <point x="233" y="435" type="line"/>
      <point x="233" y="510" type="line"/>
      <point x="158" y="449" type="line"/>
      <point x="158" y="717" type="line"/>
      <point x="84" y="700" type="line"/>
      <point x="84" y="389" type="line"/>
      <point x="9" y="328" type="line"/>
      <point x="9" y="254" type="line"/>
      <point x="84" y="315" type="line"/>
    </contour>
  </outline>
</glyph>
<glyph name="Eng" format="2">
  <advance width="725"/>
  <unicode hex="014A"/>
  <outline>
    <contour>
      <point x="520" y="-208" type="curve" smooth="yes"/>
      <point x="602" y="-208"/>
      <point x="648" y="-163"/>
      <point x="648" y="-83" type="curve" smooth="yes"/>
      <point x="648" y="700" type="line"/>
      <point x="575" y="700" type="line"/>
      <point x="575" y="124" type="line"/>
      <point x="149" y="700" type="line"/>
      <point x="77" y="700" type="line"/>
      <point x="77" y="0" type="line"/>
      <point x="150" y="0" type="line"/>
      <point x="150" y="577" type="line"/>
      <point x="575" y="0" type="line"/>
      <point x="575" y="-76" type="line" smooth="yes"/>
      <point x="575" y="-124"/>
      <point x="556" y="-144"/>
      <point x="511" y="-144" type="curve" smooth="yes"/>
      <point x="495" y="-144"/>
      <point x="486" y="-143"/>
      <point x="473" y="-140" type="curve"/>
      <point x="473" y="-202" type="line"/>
      <point x="484" y="-205"/>
      <point x="506" y="-208"/>
    </contour>
  </outline>
</glyph>
<glyph name="OE" format="2">
  <advance width="1085"/>
  <unicode hex="0152"/>
  <outline>
    <contour>
      <point x="394" y="0" type="curve" smooth="yes"/>
      <point x="1050" y="0" type="line"/>
      <point x="1050" y="68" type="line"/>
      <point x="596" y="68" type="line"/>
      <point x="679" y="124"/>
      <point x="733" y="216"/>
      <point x="742" y="320" type="curve"/>
      <point x="922" y="320" type="line"/>
      <point x="922" y="387" type="line"/>
      <point x="741" y="387" type="line"/>
      <point x="730" y="488"/>
      <point x="676" y="578"/>
      <point x="595" y="632" type="curve"/>
      <point x="1050" y="632" type="line"/>
      <point x="1050" y="700" type="line"/>
      <point x="394" y="700" type="line" smooth="yes"/>
      <point x="199" y="700"/>
      <point x="45" y="545"/>
      <point x="45" y="350" type="curve" smooth="yes"/>
      <point x="45" y="155"/>
      <point x="199" y="0"/>
    </contour>
    <contour>
      <point x="394" y="70" type="curve" smooth="yes"/>
      <point x="242" y="70"/>
      <point x="123" y="192"/>
      <point x="123" y="350" type="curve" smooth="yes"/>
      <point x="123" y="508"/>
      <point x="242" y="630"/>
      <point x="394" y="630" type="curve" smooth="yes"/>
      <point x="547" y="630"/>
      <point x="665" y="508"/>
      <point x="665" y="350" type="curve" smooth="yes"/>
      <point x="665" y="192"/>
      <point x="547" y="70"/>
    </contour>
  </outline>
</glyph>
<glyph name="oe" format="2">
  <advance width="1003"/>
  <unicode hex="0153"/>
  <outline>
    <contour>
      <point x="296" y="-10" type="curve" smooth="yes"/>
      <point x="390" y="-10"/>
      <point x="471" y="41"/>
      <point x="514" y="120" type="curve"/>
      <point x="557" y="42"/>
      <point x="640" y="-9"/>
      <point x="737" y="-9" type="curve" smooth="yes"/>
      <point x="808" y="-9"/>
      <point x="868" y="11"/>
      <point x="924" y="53" type="curve"/>
      <point x="878" y="102" type="line"/>
      <point x="843" y="73"/>
      <point x="792" y="56"/>
      <point x="740" y="56" type="curve" smooth="yes"/>
      <point x="641" y="56"/>
      <point x="563" y="129"/>
      <point x="552" y="228" type="curve"/>
      <point x="962" y="228" type="line"/>
      <point x="962" y="251" type="line"/>
      <point x="962" y="395"/>
      <point x="858" y="509"/>
      <point x="726" y="509" type="curve" smooth="yes"/>
      <point x="634" y="509"/>
      <point x="556" y="458"/>
      <point x="514" y="382" type="curve"/>
      <point x="471" y="460"/>
      <point x="390" y="511"/>
      <point x="296" y="511" type="curve" smooth="yes"/>
      <point x="153" y="511"/>
      <point x="40" y="397"/>
      <point x="40" y="251" type="curve" smooth="yes"/>
      <point x="40" y="104"/>
      <point x="153" y="-10"/>
    </contour>
    <contour>
      <point x="296" y="56" type="curve" smooth="yes"/>
      <point x="193" y="56"/>
      <point x="113" y="142"/>
      <point x="113" y="251" type="curve" smooth="yes"/>
      <point x="113" y="360"/>
      <point x="194" y="445"/>
      <point x="296" y="445" type="curve" smooth="yes"/>
      <point x="398" y="445"/>
      <point x="478" y="360"/>
      <point x="478" y="251" type="curve" smooth="yes"/>
      <point x="478" y="142"/>
      <point x="398" y="56"/>
    </contour>
    <contour>
      <point x="554" y="287" type="line"/>
      <point x="568" y="379"/>
      <point x="636" y="444"/>
      <point x="723" y="444" type="curve" smooth="yes"/>
      <point x="806" y="444"/>
      <point x="875" y="376"/>
      <point x="889" y="287" type="curve"/>
    </contour>
  </outline>
</glyph>
<glyph name="scedilla" format="2">
  <advance width="446"/>
  <unicode hex="015F"/>
  <outline>
    <contour>
      <point x="211" y="-228" type="curve" smooth="yes"/>
      <point x="278" y="-228"/>
      <point x="326" y="-190"/>
      <point x="326" y="-137" type="curve" smooth="yes"/>
      <point x="326" y="-89"/>
      <point x="289" y="-58"/>
      <point x="231" y="-55" type="curve"/>
      <point x="244" y="-8" type="line"/>
      <point x="348" y="-1"/>
      <point x="426" y="62"/>
      <point x="426" y="144" type="curve" smooth="yes"/>
      <point x="426" y="221"/>
      <point x="376" y="266"/>
      <point x="276" y="280" type="curve" smooth="yes"/>
      <point x="189" y="292" type="line" smooth="yes"/>
      <point x="123" y="302"/>
      <point x="96" y="323"/>
      <point x="96" y="366" type="curve" smooth="yes"/>
      <point x="96" y="415"/>
      <point x="143" y="449"/>
      <point x="212" y="449" type="curve" smooth="yes"/>
      <point x="267" y="449"/>
      <point x="318" y="431"/>
      <point x="374" y="393" type="curve"/>
      <point x="413" y="443" type="line"/>
      <point x="351" y="488"/>
      <point x="289" y="509"/>
      <point x="216" y="509" type="curve" smooth="yes"/>
      <point x="106" y="509"/>
      <point x="28" y="447"/>
      <point x="28" y="363" type="curve" smooth="yes"/>
      <point x="28" y="287"/>
      <point x="76" y="243"/>
      <point x="176" y="228" type="curve" smooth="yes"/>
      <point x="263" y="216" type="line" smooth="yes"/>
      <point x="327" y="207"/>
      <point x="356" y="183"/>
      <point x="356" y="140" type="curve" smooth="yes"/>
      <point x="356" y="87"/>
      <point x="300" y="50"/>
      <point x="220" y="50" type="curve" smooth="yes"/>
      <point x="161" y="50"/>
      <point x="103" y="74"/>
      <point x="57" y="117" type="curve"/>
      <point x="12" y="69" type="line"/>
      <point x="60" y="24"/>
      <point x="127" y="-4"/>
      <point x="201" y="-8" type="curve"/>
      <point x="177" y="-91" type="line"/>
      <point x="206" y="-91" type="line" smooth="yes"/>
      <point x="249" y="-91"/>
      <point x="275" y="-109"/>
      <point x="275" y="-138" type="curve" smooth="yes"/>
      <point x="275" y="-167"/>
      <point x="251" y="-187"/>
      <point x="211" y="-187" type="curve" smooth="yes"/>
      <point x="181" y="-187"/>
      <point x="153" y="-176"/>
      <point x="128" y="-155" type="curve"/>
      <point x="98" y="-187" type="line"/>
      <point x="127" y="-214"/>
      <point x="167" y="-228"/>
    </contour>
  </outline>
</glyph>
<glyph name="tcedilla" format="2">
  <advance width="365"/>
  <unicode hex="0163"/>
  <outline>
    <contour>
      <point x="216" y="-228" type="curve" smooth="yes"/>
      <point x="283" y="-228"/>
      <point x="331" y="-190"/>
      <point x="331" y="-137" type="curve" smooth="yes"/>
      <point x="331" y="-89"/>
      <point x="294" y="-58"/>
      <point x="236" y="-55" type="curve"/>
      <point x="249" y="-9" type="line"/>
      <point x="253" y="-9"/>
      <point x="256" y="-9"/>
      <point x="260" y="-9" type="curve" smooth="yes"/>
      <point x="289" y="-9"/>
      <point x="322" y="-5"/>
      <point x="348" y="4" type="curve"/>
      <point x="348" y="69" type="line"/>
      <point x="323" y="59"/>
      <point x="303" y="56"/>
      <point x="275" y="56" type="curve" smooth="yes"/>
      <point x="220" y="56"/>
      <point x="198" y="77"/>
      <point x="198" y="131" type="curve" smooth="yes"/>
      <point x="198" y="438" type="line"/>
      <point x="349" y="438" type="line"/>
      <point x="349" y="501" type="line"/>
      <point x="198" y="501" type="line"/>
      <point x="198" y="647" type="line"/>
      <point x="125" y="628" type="line"/>
      <point x="125" y="501" type="line"/>
      <point x="17" y="501" type="line"/>
      <point x="17" y="438" type="line"/>
      <point x="125" y="438" type="line"/>
      <point x="125" y="112" type="line" smooth="yes"/>
      <point x="125" y="51"/>
      <point x="154" y="12"/>
      <point x="207" y="-3" type="curve"/>
      <point x="182" y="-91" type="line"/>
      <point x="211" y="-91" type="line" smooth="yes"/>
      <point x="254" y="-91"/>
      <point x="280" y="-109"/>
      <point x="280" y="-138" type="curve" smooth="yes"/>
      <point x="280" y="-167"/>
      <point x="256" y="-187"/>
      <point x="216" y="-187" type="curve" smooth="yes"/>
      <point x="186" y="-187"/>
      <point x="158" y="-176"/>
      <point x="133" y="-155" type="curve"/>
      <point x="103" y="-187" type="line"/>
      <point x="132" y="-214"/>
      <point x="172" y="-228"/>
    </contour>
  </outline>
</glyph>
<glyph name="tcaron" format="2">
  <advance width="365"/>
  <unicode hex="0165"/>
  <outline>
    <contour>
      <point x="275" y="582" type="line"/>
      <point x="334" y="582" type="line"/>
      <point x="359" y="782" type="line"/>
      <point x="281" y="768" type="line"/>
    </contour>
    <contour>
      <point x="260" y="-9" type="curve" smooth="yes"/>
      <point x="289" y="-9"/>
      <point x="322" y="-5"/>
      <point x="348" y="4" type="curve"/>
      <point x="348" y="69" type="line"/>
      <point x="323" y="59"/>
      <point x="303" y="56"/>
      <point x="275" y="56" type="curve" smooth="yes"/>
      <point x="220" y="56"/>
      <point x="198" y="77"/>
      <point x="198" y="131" type="curve" smooth="yes"/>
      <point x="198" y="438" type="line"/>
      <point x="349" y="438" type="line"/>
      <point x="349" y="501" type="line"/>
      <point x="198" y="501" type="line"/>
      <point x="198" y="647" type="line"/>
      <point x="125" y="628" type="line"/>
      <point x="125" y="501" type="line"/>
      <point x="17" y="501" type="line"/>
      <point x="17" y="438" type="line"/>
      <point x="125" y="438" type="line"/>
      <point x="125" y="112" type="line" smooth="yes"/>
      <point x="125" y="33"/>
      <point x="173" y="-9"/>
    </contour>
  </outline>
</glyph>
<glyph name="tbar" format="2">
  <advance width="365"/>
  <unicode hex="0167"/>
  <outline>
    <contour>
      <point x="260" y="-10" type="curve" smooth="yes"/>
      <point x="289" y="-10"/>
      <point x="322" y="-6"/>
      <point x="348" y="3" type="curve"/>
      <point x="348" y="68" type="line"/>
      <point x="323" y="58"/>
      <point x="303" y="55"/>
      <point x="275" y="55" type="curve" smooth="yes"/>
      <point x="220" y="55"/>
      <point x="198" y="76"/>
      <point x="198" y="130" type="curve" smooth="yes"/>
      <point x="198" y="263" type="line"/>
      <point x="352" y="263" type="line"/>
      <point x="352" y="322" type="line"/>
      <point x="198" y="322" type="line"/>
      <point x="198" y="438" type="line"/>
      <point x="349" y="438" type="line"/>
      <point x="349" y="501" type="line"/>
      <point x="198" y="501" type="line"/>
      <point x="198" y="647" type="line"/>
      <point x="125" y="628" type="line"/>
      <point x="125" y="501" type="line"/>
      <point x="17" y="501" type="line"/>
      <point x="17" y="438" type="line"/>
      <point x="125" y="438" type="line"/>
      <point x="125" y="322" type="line"/>
      <point x="17" y="322" type="line"/>
      <point x="17" y="263" type="line"/>
      <point x="125" y="263" type="line"/>
      <point x="125" y="111" type="line" smooth="yes"/>
      <point x="125" y="32"/>
      <point x="173" y="-10"/>
    </contour>
  </outline>
</glyph>
<glyph name="Uogonek" format="2">
  <advance width="704"/>
  <unicode hex="0172"/>
  <outline>
    <contour>
      <point x="374" y="-221" type="curve" smooth="yes"/>
      <point x="402" y="-221"/>
      <point x="426" y="-214"/>
      <point x="448" y="-200" type="curve"/>
      <point x="433" y="-161" type="line"/>
      <point x="419" y="-171"/>
      <point x="402" y="-175"/>
      <point x="385" y="-175" type="curve" smooth="yes"/>
      <point x="348" y="-175"/>
      <point x="327" y="-156"/>
      <point x="327" y="-123" type="curve" smooth="yes"/>
      <point x="327" y="-85"/>
      <point x="359" y="-48"/>
      <point x="429" y="-3" type="curve"/>
      <point x="561" y="27"/>
      <point x="641" y="137"/>
      <point x="641" y="296" type="curve" smooth="yes"/>
      <point x="641" y="700" type="line"/>
      <point x="564" y="700" type="line"/>
      <point x="564" y="296" type="line" smooth="yes"/>
      <point x="564" y="152"/>
      <point x="481" y="60"/>
      <point x="352" y="60" type="curve" smooth="yes"/>
      <point x="223" y="60"/>
      <point x="140" y="152"/>
      <point x="140" y="296" type="curve" smooth="yes"/>
      <point x="140" y="700" type="line"/>
      <point x="63" y="700" type="line"/>
      <point x="63" y="296" type="line" smooth="yes"/>
      <point x="63" y="102"/>
      <point x="180" y="-13"/>
      <point x="361" y="-11" type="curve"/>
      <point x="301" y="-55"/>
      <point x="276" y="-92"/>
      <point x="276" y="-135" type="curve" smooth="yes"/>
      <point x="276" y="-187"/>
      <point x="315" y="-221"/>
    </contour>
  </outline>
</glyph>
<glyph name="uogonek" format="2">
  <advance width="549"/>
  <unicode hex="0173"/>
  <outline>
    <contour>
      <point x="428" y="-221" type="curve" smooth="yes"/>
      <point x="456" y="-221"/>
      <point x="480" y="-214"/>
      <point x="502" y="-200" type="curve"/>
      <point x="487" y="-161" type="line"/>
      <point x="473" y="-171"/>
      <point x="456" y="-175"/>
      <point x="439" y="-175" type="curve" smooth="yes"/>
      <point x="402" y="-175"/>
      <point x="381" y="-156"/>
      <point x="381" y="-123" type="curve" smooth="yes"/>
      <point x="381" y="-84"/>
      <point x="413" y="-46"/>
      <point x="486" y="0" type="curve"/>
      <point x="486" y="501" type="line"/>
      <point x="412" y="501" type="line"/>
      <point x="412" y="133" type="line"/>
      <point x="382" y="83"/>
      <point x="334" y="55"/>
      <point x="274" y="55" type="curve" smooth="yes"/>
      <point x="188" y="55"/>
      <point x="134" y="110"/>
      <point x="134" y="199" type="curve" smooth="yes"/>
      <point x="134" y="501" type="line"/>
      <point x="61" y="501" type="line"/>
      <point x="61" y="184" type="line" smooth="yes"/>
      <point x="61" y="69"/>
      <point x="140" y="-10"/>
      <point x="255" y="-10" type="curve" smooth="yes"/>
      <point x="320" y="-10"/>
      <point x="373" y="13"/>
      <point x="412" y="58" type="curve"/>
      <point x="412" y="0" type="line"/>
      <point x="429" y="0" type="line"/>
      <point x="359" y="-48"/>
      <point x="330" y="-88"/>
      <point x="330" y="-135" type="curve" smooth="yes"/>
      <point x="330" y="-187"/>
      <point x="369" y="-221"/>
    </contour>
  </outline>
</glyph>
<glyph name="dotlessj" format="2">
  <advance width="200"/>
  <unicode hex="0237"/>
  <anchor x="100" y="501" name="top"/>
  <outline>
    <contour>
      <point x="9" y="-214" type="curve" smooth="yes"/>
      <point x="92" y="-214"/>
      <point x="137" y="-168"/>
      <point x="137" y="-89" type="curve" smooth="yes"/>
      <point x="137" y="501" type="line"/>
      <point x="63" y="501" type="line"/>
      <point x="63" y="-82" type="line" smooth="yes"/>
      <point x="63" y="-130"/>
      <point x="45" y="-150"/>
      <point x="0" y="-150" type="curve" smooth="yes"/>
      <point x="-16" y="-150"/>
      <point x="-25" y="-149"/>
      <point x="-38" y="-146" type="curve"/>
      <point x="-38" y="-208" type="line"/>
      <point x="-24" y="-211"/>
      <point x="-8" y="-214"/>
    </contour>
  </outline>
</glyph>
<glyph name="dotaccent" format="2">
  <advance width="600"/>
  <unicode hex="02D9"/>
  <outline>
    <contour>
      <point x="300" y="602" type="curve" smooth="yes"/>
      <point x="327" y="602"/>
      <point x="349" y="624"/>
      <point x="349" y="651" type="curve" smooth="yes"/>
      <point x="349" y="678"/>
      <point x="327" y="700"/>
      <point x="300" y="700" type="curve" smooth="yes"/>
      <point x="273" y="700"/>
      <point x="251" y="678"/>
      <point x="251" y="651" type="curve" smooth="yes"/>
      <point x="251" y="624"/>
      <point x="273" y="602"/>
    </contour>
  </outline>
</glyph>
<glyph name="hungarumlaut" format="2">
  <advance width="600"/>
  <unicode hex="02DD"/>
  <outline>
    <contour>
      <point x="183" y="603" type="line"/>
      <point x="246" y="603" type="line"/>
      <point x="373" y="716" type="line"/>
      <point x="287" y="716" type="line"/>
    </contour>
    <contour>
      <point x="348" y="603" type="line"/>
      <point x="409" y="603" type="line"/>
      <point x="539" y="716" type="line"/>
      <point x="452" y="716" type="line"/>
    </contour>
  </outline>
</glyph>
<glyph name="emdash" format="2">
  <advance width="697"/>
  <unicode hex="2014"/>
  <outline>
    <contour>
      <point x="49" y="248" type="line"/>
      <point x="648" y="248" type="line"/>
      <point x="648" y="314" type="line"/>
      <point x="49" y="314" type="line"/>
    </contour>
  </outline>
</glyph>
<glyph name="guilsinglleft" format="2">
  <advance width="389"/>
  <unicode hex="2039"/>
  <outline>
    <contour>
      <point x="265" y="0" type="line"/>
      <point x="347" y="0" type="line"/>
      <point x="116" y="253" type="line"/>
      <point x="344" y="501" type="line"/>
      <point x="265" y="501" type="line"/>
      <point x="31" y="251" type="line"/>
    </contour>
  </outline>
</glyph>
<glyph name="fraction" format="2">
  <advance width="578"/>
  <unicode hex="2044"/>
  <outline>
    <contour>
      <point x="30" y="0" type="line"/>
      <point x="91" y="0" type="line"/>
      <point x="485" y="700" type="line"/>
      <point x="423" y="700" type="line"/>
    </contour>
  </outline>
</glyph>
<glyph name="uni2074" format="2">
  <advance width="330"/>
  <unicode hex="2074"/>
  <outline>
    <contour>
      <point x="219" y="350" type="line"/>
      <point x="271" y="350" type="line"/>
      <point x="271" y="438" type="line"/>
      <point x="314" y="438" type="line"/>
      <point x="314" y="482" type="line"/>
      <point x="271" y="482" type="line"/>
      <point x="271" y="700" type="line"/>
      <point x="213" y="700" type="line"/>
      <point x="21" y="480" type="line"/>
      <point x="21" y="438" type="line"/>
      <point x="219" y="438" type="line"/>
    </contour>
    <contour>
      <point x="82" y="482" type="line"/>
      <point x="219" y="639" type="line"/>
      <point x="219" y="482" type="line"/>
    </contour>
  </outline>
</glyph>
<glyph name="uni2076" format="2">
  <advance width="326"/>
  <unicode hex="2076"/>
  <outline>
    <contour>
      <point x="175" y="345" type="curve" smooth="yes"/>
      <point x="248" y="345"/>
      <point x="302" y="394"/>
      <point x="302" y="460" type="curve" smooth="yes"/>
      <point x="302" y="523"/>
      <point x="251" y="569"/>
      <point x="180" y="569" type="curve" smooth="yes"/>
      <point x="142" y="569"/>
      <point x="104" y="551"/>
      <point x="79" y="523" type="curve"/>
      <point x="83" y="609"/>
      <point x="123" y="658"/>
      <point x="192" y="658" type="curve" smooth="yes"/>
      <point x="216" y="658"/>
      <point x="240" y="651"/>
      <point x="260" y="637" type="curve"/>
      <point x="288" y="676" type="line"/>
      <point x="264" y="693"/>
      <point x="228" y="704"/>
      <point x="197" y="704" type="curve" smooth="yes"/>
      <point x="94" y="704"/>
      <point x="27" y="629"/>
      <point x="27" y="515" type="curve" smooth="yes"/>
      <point x="27" y="414"/>
      <point x="87" y="345"/>
    </contour>
    <contour>
      <point x="171" y="527" type="curve" smooth="yes"/>
      <point x="218" y="527"/>
      <point x="250" y="499"/>
      <point x="250" y="459" type="curve" smooth="yes"/>
      <point x="250" y="419"/>
      <point x="218" y="390"/>
      <point x="174" y="390" type="curve" smooth="yes"/>
      <point x="126" y="390"/>
      <point x="91" y="425"/>
      <point x="82" y="481" type="curve"/>
      <point x="105" y="510"/>
      <point x="137" y="527"/>
    </contour>
  </outline>
</glyph>
<glyph name="uni2078" format="2">
  <advance width="327"/>
  <unicode hex="2078"/>
  <outline>
    <contour>
      <point x="164" y="345" type="curve" smooth="yes"/>
      <point x="242" y="345"/>
      <point x="298" y="387"/>
      <point x="298" y="446" type="curve" smooth="yes"/>
      <point x="298" y="485"/>
      <point x="271" y="518"/>
      <point x="231" y="532" type="curve"/>
      <point x="264" y="547"/>
      <point x="286" y="577"/>
      <point x="286" y="611" type="curve" smooth="yes"/>
      <point x="286" y="665"/>
      <point x="233" y="706"/>
      <point x="163" y="706" type="curve" smooth="yes"/>
      <point x="93" y="706"/>
      <point x="41" y="665"/>
      <point x="41" y="611" type="curve" smooth="yes"/>
      <point x="41" y="577"/>
      <point x="63" y="547"/>
      <point x="96" y="532" type="curve"/>
      <point x="55" y="518"/>
      <point x="28" y="485"/>
      <point x="28" y="446" type="curve" smooth="yes"/>
      <point x="28" y="387"/>
      <point x="84" y="345"/>
    </contour>
    <contour>
      <point x="164" y="553" type="curve" smooth="yes"/>
      <point x="123" y="553"/>
      <point x="92" y="576"/>
      <point x="92" y="608" type="curve" smooth="yes"/>
      <point x="92" y="640"/>
      <point x="123" y="664"/>
      <point x="164" y="664" type="curve" smooth="yes"/>
      <point x="204" y="664"/>
      <point x="234" y="640"/>
      <point x="234" y="608" type="curve" smooth="yes"/>
      <point x="234" y="576"/>
      <point x="204" y="553"/>
    </contour>
    <contour>
      <point x="164" y="388" type="curve" smooth="yes"/>
      <point x="115" y="388"/>
      <point x="80" y="414"/>
      <point x="80" y="449" type="curve" smooth="yes"/>
      <point x="80" y="485"/>
      <point x="115" y="511"/>
      <point x="164" y="511" type="curve" smooth="yes"/>
      <point x="211" y="511"/>
      <point x="247" y="485"/>
      <point x="247" y="449" type="curve" smooth="yes"/>
      <point x="247" y="414"/>
      <point x="211" y="388"/>
    </contour>
  </outline>
</glyph>
<glyph name="uni2079" format="2">
  <advance width="326"/>
  <unicode hex="2079"/>
  <outline>
    <contour>
      <point x="151" y="704" type="curve" smooth="yes"/>
      <point x="78" y="704"/>
      <point x="24" y="655"/>
      <point x="24" y="589" type="curve" smooth="yes"/>
      <point x="24" y="526"/>
      <point x="75" y="480"/>
      <point x="146" y="480" type="curve" smooth="yes"/>
      <point x="184" y="480"/>
      <point x="222" y="498"/>
      <point x="247" y="526" type="curve"/>
      <point x="243" y="440"/>
      <point x="203" y="391"/>
      <point x="134" y="391" type="curve" smooth="yes"/>
      <point x="110" y="391"/>
      <point x="86" y="398"/>
      <point x="66" y="412" type="curve"/>
      <point x="38" y="373" type="line"/>
      <point x="62" y="356"/>
      <point x="98" y="345"/>
      <point x="129" y="345" type="curve" smooth="yes"/>
      <point x="232" y="345"/>
      <point x="299" y="420"/>
      <point x="299" y="534" type="curve" smooth="yes"/>
      <point x="299" y="635"/>
      <point x="239" y="704"/>
    </contour>
    <contour>
      <point x="155" y="522" type="curve" smooth="yes"/>
      <point x="108" y="522"/>
      <point x="76" y="550"/>
      <point x="76" y="590" type="curve" smooth="yes"/>
      <point x="76" y="630"/>
      <point x="108" y="659"/>
      <point x="152" y="659" type="curve" smooth="yes"/>
      <point x="200" y="659"/>
      <point x="235" y="624"/>
      <point x="244" y="568" type="curve"/>
      <point x="221" y="539"/>
      <point x="189" y="522"/>
    </contour>
  </outline>
</glyph>
<glyph name="uni2080" format="2">
  <advance width="350"/>
  <unicode hex="2080"/>
  <outline>
    <contour>
      <point x="176" y="-5" type="curve" smooth="yes"/>
      <point x="263" y="-5"/>
      <point x="323" y="68"/>
      <point x="324" y="175" type="curve" smooth="yes"/>
      <point x="323" y="282"/>
      <point x="263" y="355"/>
      <point x="176" y="355" type="curve" smooth="yes"/>
      <point x="87" y="355"/>
      <point x="27" y="282"/>
      <point x="27" y="175" type="curve" smooth="yes"/>
      <point x="27" y="68"/>
      <point x="87" y="-5"/>
    </contour>
    <contour>
      <point x="176" y="41" type="curve" smooth="yes"/>
      <point x="116" y="41"/>
      <point x="79" y="93"/>
      <point x="78" y="175" type="curve" smooth="yes"/>
      <point x="79" y="257"/>
      <point x="116" y="310"/>
      <point x="176" y="310" type="curve" smooth="yes"/>
      <point x="235" y="310"/>
      <point x="273" y="257"/>
      <point x="273" y="175" type="curve" smooth="yes"/>
      <point x="273" y="93"/>
      <point x="235" y="41"/>
    </contour>
  </outline>
</glyph>
<glyph name="uni2081" format="2">
  <advance width="165"/>
  <unicode hex="2081"/>
  <outline>
    <contour>
      <point x="83" y="0" type="line"/>
      <point x="135" y="0" type="line"/>
      <point x="135" y="350" type="line"/>
      <point x="102" y="350" type="line"/>
      <point x="20" y="315" type="line"/>
      <point x="20" y="270" type="line"/>
      <point x="83" y="296" type="line"/>
    </contour>
  </outline>
</glyph>
<glyph name="uni2082" format="2">
  <advance width="291"/>
  <unicode hex="2082"/>
  <outline>
    <contour>
      <point x="26" y="0" type="line"/>
      <point x="270" y="0" type="line"/>
      <point x="270" y="44" type="line"/>
      <point x="98" y="44" type="line"/>
      <point x="195" y="133" type="line" smooth="yes"/>
      <point x="248" y="182"/>
      <point x="265" y="210"/>
      <point x="265" y="252" type="curve" smooth="yes"/>
      <point x="265" y="312"/>
      <point x="214" y="355"/>
      <point x="143" y="355" type="curve" smooth="yes"/>
      <point x="98" y="355"/>
      <point x="56" y="337"/>
      <point x="17" y="302" type="curve"/>
      <point x="46" y="267" type="line"/>
      <point x="82" y="298"/>
      <point x="108" y="310"/>
      <point x="142" y="310" type="curve" smooth="yes"/>
      <point x="184" y="310"/>
      <point x="214" y="284"/>
      <point x="214" y="248" type="curve" smooth="yes"/>
      <point x="214" y="221"/>
      <point x="200" y="200"/>
      <point x="162" y="163" type="curve" smooth="yes"/>
      <point x="26" y="38" type="line"/>
    </contour>
  </outline>
</glyph>
<glyph name="uni2083" format="2">
  <advance width="313"/>
  <unicode hex="2083"/>
  <outline>
    <contour>
      <point x="151" y="-5" type="curve" smooth="yes"/>
      <point x="229" y="-5"/>
      <point x="285" y="37"/>
      <point x="285" y="96" type="curve" smooth="yes"/>
      <point x="285" y="135"/>
      <point x="257" y="165"/>
      <point x="215" y="178" type="curve"/>
      <point x="251" y="194"/>
      <point x="273" y="224"/>
      <point x="272" y="259" type="curve" smooth="yes"/>
      <point x="273" y="315"/>
      <point x="221" y="356"/>
      <point x="151" y="356" type="curve" smooth="yes"/>
      <point x="101" y="356"/>
      <point x="56" y="336"/>
      <point x="22" y="301" type="curve"/>
      <point x="57" y="268" type="line"/>
      <point x="87" y="298"/>
      <point x="112" y="310"/>
      <point x="149" y="310" type="curve" smooth="yes"/>
      <point x="190" y="310"/>
      <point x="220" y="287"/>
      <point x="220" y="255" type="curve" smooth="yes"/>
      <point x="220" y="221"/>
      <point x="190" y="195"/>
      <point x="150" y="195" type="curve" smooth="yes"/>
      <point x="123" y="195" type="line"/>
      <point x="123" y="153" type="line"/>
      <point x="154" y="153" type="line" smooth="yes"/>
      <point x="201" y="153"/>
      <point x="232" y="132"/>
      <point x="232" y="100" type="curve" smooth="yes"/>
      <point x="232" y="64"/>
      <point x="200" y="40"/>
      <point x="151" y="40" type="curve" smooth="yes"/>
      <point x="110" y="40"/>
      <point x="82" y="51"/>
      <point x="53" y="80" type="curve"/>
      <point x="18" y="47" type="line"/>
      <point x="51" y="14"/>
      <point x="99" y="-5"/>
    </contour>
  </outline>
</glyph>
<glyph name="uni2084" format="2">
  <advance width="330"/>
  <unicode hex="2084"/>
  <outline>
    <contour>
      <point x="219" y="0" type="line"/>
      <point x="271" y="0" type="line"/>
      <point x="271" y="88" type="line"/>
      <point x="314" y="88" type="line"/>
      <point x="314" y="132" type="line"/>
      <point x="271" y="132" type="line"/>
      <point x="271" y="350" type="line"/>
      <point x="213" y="350" type="line"/>
      <point x="21" y="130" type="line"/>
      <point x="21" y="88" type="line"/>
      <point x="219" y="88" type="line"/>
    </contour>
    <contour>
      <point x="82" y="132" type="line"/>
      <point x="219" y="289" type="line"/>
      <point x="219" y="132" type="line"/>
    </contour>
  </outline>
</glyph>
<glyph name="uni2085" format="2">
  <advance width="309"/>
  <unicode hex="2085"/>
  <outline>
    <contour>
      <point x="147" y="-5" type="curve" smooth="yes"/>
      <point x="228" y="-5"/>
      <point x="284" y="41"/>
      <point x="284" y="110" type="curve" smooth="yes"/>
      <point x="284" y="175"/>
      <point x="232" y="219"/>
      <point x="155" y="219" type="curve" smooth="yes"/>
      <point x="132" y="219"/>
      <point x="109" y="215"/>
      <point x="86" y="206" type="curve"/>
      <point x="90" y="305" type="line"/>
      <point x="264" y="305" type="line"/>
      <point x="264" y="350" type="line"/>
      <point x="48" y="350" type="line"/>
      <point x="40" y="173" type="line"/>
      <point x="72" y="163" type="line"/>
      <point x="97" y="173"/>
      <point x="122" y="177"/>
      <point x="145" y="177" type="curve" smooth="yes"/>
      <point x="195" y="177"/>
      <point x="231" y="148"/>
      <point x="231" y="109" type="curve" smooth="yes"/>
      <point x="231" y="67"/>
      <point x="198" y="39"/>
      <point x="149" y="39" type="curve" smooth="yes"/>
      <point x="112" y="39"/>
      <point x="83" y="50"/>
      <point x="52" y="78" type="curve"/>
      <point x="20" y="42" type="line"/>
      <point x="54" y="11"/>
      <point x="98" y="-5"/>
    </contour>
  </outline>
</glyph>
<glyph name="uni2086" format="2">
  <advance width="326"/>
  <unicode hex="2086"/>
  <outline>
    <contour>
      <point x="175" y="-5" type="curve" smooth="yes"/>
      <point x="248" y="-5"/>
      <point x="302" y="44"/>
      <point x="302" y="110" type="curve" smooth="yes"/>
      <point x="302" y="173"/>
      <point x="251" y="219"/>
      <point x="180" y="219" type="curve" smooth="yes"/>
      <point x="142" y="219"/>
      <point x="104" y="201"/>
      <point x="79" y="173" type="curve"/>
      <point x="83" y="259"/>
      <point x="123" y="308"/>
      <point x="192" y="308" type="curve" smooth="yes"/>
      <point x="216" y="308"/>
      <point x="240" y="301"/>
      <point x="260" y="287" type="curve"/>
      <point x="288" y="326" type="line"/>
      <point x="264" y="343"/>
      <point x="228" y="354"/>
      <point x="197" y="354" type="curve" smooth="yes"/>
      <point x="94" y="354"/>
      <point x="27" y="279"/>
      <point x="27" y="165" type="curve" smooth="yes"/>
      <point x="27" y="64"/>
      <point x="87" y="-5"/>
    </contour>
    <contour>
      <point x="171" y="177" type="curve" smooth="yes"/>
      <point x="218" y="177"/>
      <point x="250" y="149"/>
      <point x="250" y="109" type="curve" smooth="yes"/>
      <point x="250" y="69"/>
      <point x="218" y="40"/>
      <point x="174" y="40" type="curve" smooth="yes"/>
      <point x="126" y="40"/>
      <point x="91" y="75"/>
      <point x="82" y="131" type="curve"/>
      <point x="105" y="160"/>
      <point x="137" y="177"/>
    </contour>
  </outline>
</glyph>
<glyph name="uni2087" format="2">
  <advance width="298"/>
  <unicode hex="2087"/>
  <outline>
    <contour>
      <point x="56" y="0" type="line"/>
      <point x="117" y="0" type="line"/>
      <point x="287" y="311" type="line"/>
      <point x="287" y="350" type="line"/>
      <point x="16" y="350" type="line"/>
      <point x="16" y="305" type="line"/>
      <point x="228" y="305" type="line"/>
    </contour>
  </outline>
</glyph>
<glyph name="uni2088" format="2">
  <advance width="327"/>
  <unicode hex="2088"/>
  <outline>
    <contour>
      <point x="164" y="-5" type="curve" smooth="yes"/>
      <point x="242" y="-5"/>
      <point x="298" y="37"/>
      <point x="298" y="96" type="curve" smooth="yes"/>
      <point x="298" y="135"/>
      <point x="271" y="168"/>
      <point x="231" y="182" type="curve"/>
      <point x="264" y="197"/>
      <point x="286" y="227"/>
      <point x="286" y="261" type="curve" smooth="yes"/>
      <point x="286" y="315"/>
      <point x="233" y="356"/>
      <point x="163" y="356" type="curve" smooth="yes"/>
      <point x="93" y="356"/>
      <point x="41" y="315"/>
      <point x="41" y="261" type="curve" smooth="yes"/>
      <point x="41" y="227"/>
      <point x="63" y="197"/>
      <point x="96" y="182" type="curve"/>
      <point x="55" y="168"/>
      <point x="28" y="135"/>
      <point x="28" y="96" type="curve" smooth="yes"/>
      <point x="28" y="37"/>
      <point x="84" y="-5"/>
    </contour>
    <contour>
      <point x="164" y="203" type="curve" smooth="yes"/>
      <point x="123" y="203"/>
      <point x="92" y="226"/>
      <point x="92" y="258" type="curve" smooth="yes"/>
      <point x="92" y="290"/>
      <point x="123" y="314"/>
      <point x="164" y="314" type="curve" smooth="yes"/>
      <point x="204" y="314"/>
      <point x="234" y="290"/>
      <point x="234" y="258" type="curve" smooth="yes"/>
      <point x="234" y="226"/>
      <point x="204" y="203"/>
    </contour>
    <contour>
      <point x="164" y="38" type="curve" smooth="yes"/>
      <point x="115" y="38"/>
      <point x="80" y="64"/>
      <point x="80" y="99" type="curve" smooth="yes"/>
      <point x="80" y="135"/>
      <point x="115" y="161"/>
      <point x="164" y="161" type="curve" smooth="yes"/>
      <point x="211" y="161"/>
      <point x="247" y="135"/>
      <point x="247" y="99" type="curve" smooth="yes"/>
      <point x="247" y="64"/>
      <point x="211" y="38"/>
    </contour>
  </outline>
</glyph>
<glyph name="Euro" format="2">
  <advance width="775"/>
  <unicode hex="20AC"/>
  <outline>
    <contour>
      <point x="463" y="-11" type="curve" smooth="yes"/>
      <point x="571" y="-11"/>
      <point x="666" y="35"/>
      <point x="727" y="116" type="curve"/>
      <point x="676" y="156" type="line"/>
      <point x="629" y="91"/>
      <point x="550" y="54"/>
      <point x="463" y="54" type="curve" smooth="yes"/>
      <point x="334" y="54"/>
      <point x="239" y="134"/>
      <point x="209" y="259" type="curve"/>
      <point x="427" y="259" type="line"/>
      <point x="445" y="310" type="line"/>
      <point x="200" y="310" type="line"/>
      <point x="199" y="323"/>
      <point x="198" y="336"/>
      <point x="198" y="350" type="curve" smooth="yes"/>
      <point x="198" y="365"/>
      <point x="199" y="379"/>
      <point x="200" y="393" type="curve"/>
      <point x="474" y="393" type="line"/>
      <point x="492" y="443" type="line"/>
      <point x="209" y="443" type="line"/>
      <point x="240" y="568"/>
      <point x="335" y="647"/>
      <point x="464" y="647" type="curve" smooth="yes"/>
      <point x="553" y="647"/>
      <point x="628" y="612"/>
      <point x="677" y="545" type="curve"/>
      <point x="730" y="586" type="line"/>
      <point x="669" y="668"/>
      <point x="577" y="711"/>
      <point x="466" y="711" type="curve" smooth="yes"/>
      <point x="299" y="711"/>
      <point x="171" y="604"/>
      <point x="136" y="443" type="curve"/>
      <point x="33" y="443" type="line"/>
      <point x="33" y="393" type="line"/>
      <point x="128" y="393" type="line"/>
      <point x="127" y="379"/>
      <point x="126" y="365"/>
      <point x="126" y="350" type="curve" smooth="yes"/>
      <point x="126" y="336"/>
      <point x="127" y="323"/>
      <point x="128" y="310" type="curve"/>
      <point x="33" y="310" type="line"/>
      <point x="33" y="259" type="line"/>
      <point x="135" y="259" type="line"/>
      <point x="170" y="97"/>
      <point x="296" y="-11"/>
    </contour>
  </outline>
</glyph>
<glyph name="trademark" format="2">
  <advance width="675"/>
  <unicode hex="2122"/>
  <outline>
    <contour>
      <point x="324" y="421" type="line"/>
      <point x="366" y="421" type="line"/>
      <point x="365" y="643" type="line"/>
      <point x="467" y="440" type="line"/>
      <point x="570" y="646" type="line"/>
      <point x="568" y="421" type="line"/>
      <point x="610" y="421" type="line"/>
      <point x="610" y="700" type="line"/>
      <point x="555" y="700" type="line"/>
      <point x="467" y="519" type="line"/>
      <point x="379" y="700" type="line"/>
      <point x="324" y="700" type="line"/>
    </contour>
    <contour>
      <point x="132" y="421" type="line"/>
      <point x="175" y="421" type="line"/>
      <point x="175" y="662" type="line"/>
      <point x="274" y="662" type="line"/>
      <point x="274" y="700" type="line"/>
      <point x="33" y="700" type="line"/>
      <point x="33" y="662" type="line"/>
      <point x="132" y="662" type="line"/>
    </contour>
  </outline>
</glyph>
<glyph name="notequal" format="2">
  <advance width="600"/>
  <unicode hex="2260"/>
  <outline>
    <contour>
      <point x="111" y="123" type="line"/>
      <point x="169" y="123" type="line"/>
      <point x="253" y="245" type="line"/>
      <point x="498" y="245" type="line"/>
      <point x="498" y="305" type="line"/>
      <point x="294" y="305" type="line"/>
      <point x="365" y="408" type="line"/>
      <point x="498" y="408" type="line"/>
      <point x="498" y="468" type="line"/>
      <point x="406" y="468" type="line"/>
      <point x="489" y="589" type="line"/>
      <point x="431" y="589" type="line"/>
      <point x="348" y="468" type="line"/>
      <point x="102" y="468" type="line"/>
      <point x="102" y="408" type="line"/>
      <point x="307" y="408" type="line"/>
      <point x="236" y="305" type="line"/>
      <point x="102" y="305" type="line"/>
      <point x="102" y="245" type="line"/>
      <point x="195" y="245" type="line"/>
    </contour>
  </outline>
</glyph>
<glyph name="uniFFFD" format="2">
  <advance width="600"/>
  <unicode hex="FFFD"/>
  <outline>
    <contour>
      <point x="103" y="-100" type="line"/>
      <point x="497" y="-100" type="line"/>
      <point x="497" y="750" type="line"/>
      <point x="103" y="750" type="line"/>
    </contour>
  </outline>
</glyph>
<glyph name="acutecomb" format="2">
  <anchor x="300" y="501" name="_top"/>
  <outline>
    <contour>
      <point x="236" y="600" type="line"/>
      <point x="301" y="600" type="line"/>
      <point x="425" y="716" type="line"/>
      <point x="330" y="716" type="line"/>
    </contour>
  </outline>
</glyph>
<glyph name="aogonek.school" format="2">
  <advance width="590"/>
  <outline>
    <contour>
      <point x="468" y="-221" type="curve" smooth="yes"/>
      <point x="496" y="-221"/>
      <point x="520" y="-214"/>
      <point x="542" y="-200" type="curve"/>
      <point x="527" y="-161" type="line"/>
      <point x="513" y="-171"/>
      <point x="496" y="-175"/>
      <point x="479" y="-175" type="curve" smooth="yes"/>
      <point x="442" y="-175"/>
      <point x="421" y="-156"/>
      <point x="421" y="-123" type="curve" smooth="yes"/>
      <point x="421" y="-84"/>
      <point x="454" y="-46"/>
      <point x="527" y="0" type="curve"/>
      <point x="527" y="501" type="line"/>
      <point x="453" y="501" type="line"/>
      <point x="453" y="452" type="line"/>
      <point x="408" y="489"/>
      <point x="351" y="509"/>
      <point x="293" y="509" type="curve" smooth="yes"/>
      <point x="150" y="509"/>
      <point x="40" y="396"/>
      <point x="40" y="251" type="curve" smooth="yes"/>
      <point x="40" y="105"/>
      <point x="151" y="-8"/>
      <point x="292" y="-8" type="curve" smooth="yes"/>
      <point x="355" y="-8"/>
      <point x="411" y="13"/>
      <point x="454" y="53" type="curve"/>
      <point x="454" y="0" type="line"/>
      <point x="469" y="0" type="line"/>
      <point x="399" y="-48"/>
      <point x="370" y="-88"/>
      <point x="370" y="-135" type="curve" smooth="yes"/>
      <point x="370" y="-187"/>
      <point x="409" y="-221"/>
    </contour>
    <contour>
      <point x="113" y="252" type="curve" smooth="yes"/>
      <point x="113" y="362"/>
      <point x="194" y="444"/>
      <point x="299" y="444" type="curve" smooth="yes"/>
      <point x="361" y="444"/>
      <point x="418" y="418"/>
      <point x="453" y="375" type="curve"/>
      <point x="453" y="127" type="line"/>
      <point x="418" y="83"/>
      <point x="362" y="57"/>
      <point x="299" y="57" type="curve" smooth="yes"/>
      <point x="194" y="57"/>
      <point x="113" y="142"/>
    </contour>
  </outline>
</glyph>
<glyph name="caronSlovak" format="2">
  <advance width="600"/>
  <outline>
    <contour>
      <point x="267" y="508" type="line"/>
      <point x="323" y="508" type="line"/>
      <point x="348" y="711" type="line"/>
      <point x="272" y="700" type="line"/>
    </contour>
  </outline>
</glyph>
<glyph name="commaaccent" format="2">
  <advance width="600"/>
  <guideline x="300" y="-13" angle="90.0" identifier="TB9epO5wox"/>
  <outline>
    <contour>
      <point x="222" y="-264" type="line"/>
      <point x="277" y="-264" type="line"/>
      <point x="337" y="-85" type="line"/>
      <point x="263" y="-85" type="line"/>
    </contour>
  </outline>
</glyph>
<glyph name="cordinal" format="2">
  <advance width="407"/>
  <outline>
    <contour>
      <point x="229" y="319" type="curve" smooth="yes"/>
      <point x="285" y="319"/>
      <point x="340" y="341"/>
      <point x="379" y="379" type="curve"/>
      <point x="340" y="423" type="line"/>
      <point x="310" y="392"/>
      <point x="270" y="375"/>
      <point x="231" y="375" type="curve" smooth="yes"/>
      <point x="156" y="375"/>
      <point x="98" y="436"/>
      <point x="98" y="515" type="curve" smooth="yes"/>
      <point x="98" y="594"/>
      <point x="156" y="655"/>
      <point x="231" y="655" type="curve" smooth="yes"/>
      <point x="270" y="655"/>
      <point x="310" y="638"/>
      <point x="340" y="607" type="curve"/>
      <point x="379" y="651" type="line"/>
      <point x="340" y="689"/>
      <point x="285" y="711"/>
      <point x="229" y="711" type="curve" smooth="yes"/>
      <point x="121" y="711"/>
      <point x="36" y="625"/>
      <point x="36" y="515" type="curve" smooth="yes"/>
      <point x="36" y="405"/>
      <point x="121" y="319"/>
    </contour>
  </outline>
</glyph>
<glyph name="g.alt" format="2">
  <advance width="530"/>
  <note>
Version created Sun Jan 13 16:53:00 2019
</note>
  <anchor x="265" y="501" name="top"/>
  <outline>
    <contour>
      <point x="256" y="-214" type="curve" smooth="yes"/>
      <point x="422" y="-214"/>
      <point x="528" y="-155"/>
      <point x="528" y="-62" type="curve" smooth="yes"/>
      <point x="528" y="2"/>
      <point x="481" y="39"/>
      <point x="398" y="44" type="curve" smooth="yes"/>
      <point x="217" y="53" type="line" smooth="yes"/>
      <point x="176" y="56"/>
      <point x="156" y="70"/>
      <point x="156" y="95" type="curve" smooth="yes"/>
      <point x="156" y="116"/>
      <point x="172" y="133"/>
      <point x="199" y="144" type="curve"/>
      <point x="219" y="138"/>
      <point x="240" y="135"/>
      <point x="262" y="135" type="curve" smooth="yes"/>
      <point x="377" y="135"/>
      <point x="469" y="218"/>
      <point x="469" y="323" type="curve" smooth="yes"/>
      <point x="469" y="368"/>
      <point x="452" y="409"/>
      <point x="424" y="441" type="curve"/>
      <point x="443" y="458"/>
      <point x="470" y="468"/>
      <point x="502" y="468" type="curve" smooth="yes"/>
      <point x="514" y="468"/>
      <point x="523" y="467"/>
      <point x="531" y="466" type="curve"/>
      <point x="528" y="530" type="line"/>
      <point x="522" y="531"/>
      <point x="515" y="532"/>
      <point x="505" y="532" type="curve" smooth="yes"/>
      <point x="459" y="532"/>
      <point x="418" y="507"/>
      <point x="396" y="467" type="curve"/>
      <point x="360" y="494"/>
      <point x="313" y="511"/>
      <point x="262" y="511" type="curve" smooth="yes"/>
      <point x="147" y="511"/>
      <point x="55" y="428"/>
      <point x="55" y="323" type="curve" smooth="yes"/>
      <point x="55" y="255"/>
      <point x="94" y="196"/>
      <point x="152" y="163" type="curve"/>
      <point x="113" y="145"/>
      <point x="88" y="115"/>
      <point x="88" y="80" type="curve" smooth="yes"/>
      <point x="88" y="51"/>
      <point x="101" y="27"/>
      <point x="126" y="11" type="curve"/>
      <point x="62" y="-13"/>
      <point x="26" y="-51"/>
      <point x="26" y="-95" type="curve" smooth="yes"/>
      <point x="26" y="-170"/>
      <point x="110" y="-214"/>
    </contour>
    <contour>
      <point x="262" y="196" type="curve" smooth="yes"/>
      <point x="185" y="196"/>
      <point x="126" y="251"/>
      <point x="126" y="323" type="curve" smooth="yes"/>
      <point x="126" y="395"/>
      <point x="185" y="450"/>
      <point x="262" y="450" type="curve" smooth="yes"/>
      <point x="339" y="450"/>
      <point x="398" y="395"/>
      <point x="398" y="323" type="curve" smooth="yes"/>
      <point x="398" y="251"/>
      <point x="339" y="196"/>
    </contour>
    <contour>
      <point x="251" y="-159" type="curve" smooth="yes"/>
      <point x="154" y="-159"/>
      <point x="96" y="-132"/>
      <point x="96" y="-86" type="curve" smooth="yes"/>
      <point x="96" y="-52"/>
      <point x="128" y="-25"/>
      <point x="186" y="-11" type="curve"/>
      <point x="195" y="-12"/>
      <point x="205" y="-13"/>
      <point x="216" y="-14" type="curve" smooth="yes"/>
      <point x="384" y="-23" type="line" smooth="yes"/>
      <point x="430" y="-25"/>
      <point x="454" y="-42"/>
      <point x="454" y="-72" type="curve" smooth="yes"/>
      <point x="454" y="-125"/>
      <point x="375" y="-159"/>
    </contour>
  </outline>
</glyph>
<glyph name="gravecomb" format="2">
  <anchor x="300" y="501" name="_top"/>
  <outline>
    <contour>
      <point x="290" y="600" type="line"/>
      <point x="355" y="600" type="line"/>
      <point x="263" y="716" type="line"/>
      <point x="167" y="716" type="line"/>
    </contour>
  </outline>
</glyph>
<glyph name="reversequotedblleft" format="2">
  <advance width="386"/>
  <outline>
    <contour>
      <point x="135" y="508" type="line"/>
      <point x="193" y="508" type="line"/>
      <point x="136" y="719" type="line"/>
      <point x="56" y="719" type="line"/>
    </contour>
    <contour>
      <point x="271" y="508" type="line"/>
      <point x="329" y="508" type="line"/>
      <point x="271" y="719" type="line"/>
      <point x="191" y="719" type="line"/>
    </contour>
  </outline>
</glyph>
<glyph name="uni0304" format="2">
  <anchor x="300" y="501" name="_top"/>
  <outline>
    <contour>
      <point x="158" y="621" type="line"/>
      <point x="442" y="621" type="line"/>
      <point x="442" y="674" type="line"/>
      <point x="158" y="674" type="line"/>
    </contour>
  </outline>
</glyph>
<glyph name="uni0306" format="2">
  <anchor x="300" y="501" name="_top"/>
  <outline>
    <contour>
      <point x="300" y="592" type="curve"/>
      <point x="379" y="592"/>
      <point x="436" y="638"/>
      <point x="454" y="715" type="curve"/>
      <point x="402" y="728" type="line"/>
      <point x="387" y="671"/>
      <point x="351" y="641"/>
      <point x="300" y="641" type="curve"/>
      <point x="247" y="641"/>
      <point x="212" y="670"/>
      <point x="198" y="728" type="curve"/>
      <point x="146" y="715" type="line"/>
      <point x="163" y="638"/>
      <point x="220" y="592"/>
    </contour>
  </outline>
</glyph>
<glyph name="uni030B" format="2">
  <anchor x="300" y="501" name="_top"/>
  <outline>
    <contour>
      <point x="183" y="603" type="line"/>
      <point x="246" y="603" type="line"/>
      <point x="373" y="716" type="line"/>
      <point x="287" y="716" type="line"/>
    </contour>
    <contour>
      <point x="348" y="603" type="line"/>
      <point x="409" y="603" type="line"/>
      <point x="539" y="716" type="line"/>
      <point x="452" y="716" type="line"/>
    </contour>
  </outline>
</glyph>
<glyph name="uni030C" format="2">
  <anchor x="300" y="501" name="_top"/>
  <outline>
    <contour>
      <point x="218" y="718" type="line"/>
      <point x="156" y="718" type="line"/>
      <point x="260" y="598" type="line"/>
      <point x="340" y="598" type="line"/>
      <point x="444" y="718" type="line"/>
      <point x="382" y="718" type="line"/>
      <point x="300" y="639" type="line"/>
    </contour>
  </outline>
</glyph>
